<svg xmlns="http://www.w3.org/2000/svg" width="38.947" height="31.649" viewBox="0 0 38.947 31.649">
  <g id="arrow" transform="translate(5.525 0) rotate(13)">
    <path id="Path_564" data-name="Path 564" d="M.329,18.347h0l0,0a.9.9,0,0,0-.214.26A.672.672,0,0,0,.07,18.7a.734.734,0,0,0-.057.229A.583.583,0,0,0,0,19.014c0,.015-.005.029,0,.044a.757.757,0,0,0,.073.264c0,.009.012.016.016.025a.915.915,0,0,0,.195.248c.011.01.015.024.027.035L5.837,24.29a1.267,1.267,0,0,0,1.551.014.8.8,0,0,0,.017-1.28L4.426,20.511a39.894,39.894,0,0,0,8.833-.275C26.468,18.522,35.816,9.787,34.1.764A1.054,1.054,0,0,0,33.015,0a1.442,1.442,0,0,0-.172.01.945.945,0,0,0-.913,1.035c1.531,8.036-7,15.843-19.046,17.408a37.507,37.507,0,0,1-8.638.22l4.6-1.955A.836.836,0,0,0,9.315,15.5a1.219,1.219,0,0,0-1.477-.39L.592,18.19a1.158,1.158,0,0,0-.263.158Z" transform="translate(0 0)" fill="#11987e"/>
  </g>
</svg>
