<svg xmlns="http://www.w3.org/2000/svg" width="42.33" height="44.608" viewBox="0 0 42.33 44.608">
  <g id="arrow" transform="matrix(0.588, -0.809, 0.809, 0.588, 0, 29.342)">
    <path id="Path_564" data-name="Path 564" d="M.347,6.572h0l0,0a.953.953,0,0,1-.226-.275A.711.711,0,0,1,.074,6.2a.776.776,0,0,1-.06-.242A.617.617,0,0,1,0,5.867C0,5.851,0,5.836,0,5.82a.8.8,0,0,1,.077-.279c0-.009.012-.017.017-.026A.968.968,0,0,1,.3,5.254c.012-.011.016-.026.028-.037L6.171.288A1.34,1.34,0,0,1,7.811.273a.843.843,0,0,1,.018,1.353L4.68,4.284a42.182,42.182,0,0,1,9.34.291C27.987,6.388,37.871,15.624,36.053,25.164a1.115,1.115,0,0,1-1.144.808,1.525,1.525,0,0,1-.181-.011,1,1,0,0,1-.966-1.094c1.619-8.5-7.4-16.752-20.139-18.407a39.658,39.658,0,0,0-9.134-.233L9.35,8.294a.884.884,0,0,1,.5,1.289A1.288,1.288,0,0,1,8.287,10L.626,6.738a1.225,1.225,0,0,1-.278-.167Z" transform="translate(0 0)" fill="#48c9b0"/>
  </g>
</svg>
