<svg xmlns="http://www.w3.org/2000/svg" width="16.564" height="22.362" viewBox="0 0 16.564 22.362">
  <g id="arrow" transform="translate(1.13 22.362) rotate(-93)">
    <path id="Path_564" data-name="Path 564" d="M.207,3.91h0l0,0a.567.567,0,0,1-.135-.164.423.423,0,0,1-.026-.054.461.461,0,0,1-.036-.144A.367.367,0,0,1,0,3.491c0-.01,0-.018,0-.028A.476.476,0,0,1,.046,3.3c0-.006.007-.01.01-.015a.576.576,0,0,1,.122-.156C.185,3.119.188,3.111.2,3.1L3.672.171A.8.8,0,0,1,4.648.162a.5.5,0,0,1,.011.805L2.785,2.549a25.1,25.1,0,0,1,5.558.173C16.655,3.8,22.536,9.3,21.455,14.974a.664.664,0,0,1-.681.481.907.907,0,0,1-.108-.007.6.6,0,0,1-.575-.651c.963-5.057-4.4-9.969-11.984-10.953a23.6,23.6,0,0,0-5.435-.139l2.893,1.23a.526.526,0,0,1,.3.767.767.767,0,0,1-.929.246L.372,4.01a.729.729,0,0,1-.166-.1Z" transform="translate(0 0)" fill="#11987e"/>
  </g>
</svg>
