<svg xmlns="http://www.w3.org/2000/svg" width="42.329" height="44.607" viewBox="0 0 42.329 44.607">
  <g id="arrow" transform="matrix(-0.588, -0.809, 0.809, -0.588, 21.318, 44.607)">
    <path id="Path_564" data-name="Path 564" d="M.347,19.4h0l0,0a.953.953,0,0,0-.226.275.711.711,0,0,0-.043.091.776.776,0,0,0-.06.242A.617.617,0,0,0,0,20.1c0,.016-.006.031,0,.047a.8.8,0,0,0,.077.279c0,.009.012.017.017.026a.968.968,0,0,0,.206.262c.012.011.016.026.028.037l5.843,4.929a1.34,1.34,0,0,0,1.64.015.843.843,0,0,0,.018-1.353L4.68,21.688a42.182,42.182,0,0,0,9.34-.291C27.987,19.584,37.87,10.348,36.053.808A1.115,1.115,0,0,0,34.909,0a1.525,1.525,0,0,0-.181.011A1,1,0,0,0,33.762,1.1c1.619,8.5-7.4,16.752-20.139,18.406a39.658,39.658,0,0,1-9.134.233L9.35,17.677a.884.884,0,0,0,.5-1.289,1.288,1.288,0,0,0-1.562-.413L.626,19.233a1.224,1.224,0,0,0-.278.167Z" transform="translate(0 0)" fill="#00a4e0"/>
  </g>
</svg>
