<svg xmlns="http://www.w3.org/2000/svg" width="67.22" height="60.747" viewBox="0 0 67.22 60.747">
  <g id="arrow" transform="translate(67.22 34.861) rotate(152)">
    <path id="Path_564" data-name="Path 564" d="M54.61,29.493h0l.005.006a1.449,1.449,0,0,1,.344.418,1.08,1.08,0,0,1,.065.139,1.179,1.179,0,0,1,.091.368.938.938,0,0,1,.014.139c0,.025.009.047.007.071a1.216,1.216,0,0,1-.117.424c-.005.014-.019.025-.026.039a1.471,1.471,0,0,1-.313.4c-.018.017-.024.039-.043.056l-8.883,7.493a2.037,2.037,0,0,1-2.493.023,1.282,1.282,0,0,1-.028-2.057l4.788-4.04a64.128,64.128,0,0,1-14.2-.442c-21.233-2.756-36.26-16.8-33.5-31.3A1.7,1.7,0,0,1,2.067,0a2.318,2.318,0,0,1,.276.017A1.52,1.52,0,0,1,3.811,1.68C1.349,14.6,15.059,27.148,34.427,29.662a60.291,60.291,0,0,0,13.885.354l-7.389-3.142a1.344,1.344,0,0,1-.759-1.96,1.959,1.959,0,0,1,2.374-.627l11.648,4.953a1.862,1.862,0,0,1,.423.254Z" transform="translate(0 0)" fill="#11987e"/>
  </g>
</svg>
