<svg xmlns="http://www.w3.org/2000/svg" width="29.414" height="30.278" viewBox="0 0 29.414 30.278">
  <g id="arrow" transform="matrix(0.643, -0.766, 0.766, 0.643, 0, 18.914)">
    <path id="Path_564" data-name="Path 564" d="M24.453,13.207h0l0,0a.649.649,0,0,1,.154.187.484.484,0,0,1,.029.062.528.528,0,0,1,.041.165.42.42,0,0,1,.006.062c0,.011,0,.021,0,.032a.545.545,0,0,1-.052.19c0,.006-.008.011-.012.018a.659.659,0,0,1-.14.178c-.008.007-.011.017-.019.025l-3.978,3.355a.912.912,0,0,1-1.116.01.574.574,0,0,1-.012-.921L21.5,14.764a28.716,28.716,0,0,1-6.358-.2C5.638,13.332-1.091,7.045.147.55A.759.759,0,0,1,.925,0a1.038,1.038,0,0,1,.123.007.68.68,0,0,1,.657.745c-1.1,5.785,5.037,11.4,13.71,12.53a27,27,0,0,0,6.218.159l-3.309-1.407a.6.6,0,0,1-.34-.878.877.877,0,0,1,1.063-.281l5.216,2.218a.834.834,0,0,1,.189.114Z" transform="translate(0 0)" fill="#00a4e0"/>
  </g>
</svg>
