<svg xmlns="http://www.w3.org/2000/svg" width="19.33" height="31.15" viewBox="0 0 19.33 31.15">
  <g id="old-man-with-hat-walking-with-cane" transform="translate(-10.414 0)">
    <g id="Group_44" data-name="Group 44" transform="translate(10.414 0)">
      <path id="Path_126" data-name="Path 126" d="M28.994,17.647c.4.255-.183-.275-.293-.421-.39-.515-.756-1.046-1.123-1.576q-.649-.939-1.277-1.893c-.541-.821-1.643-.923-2.523-1.146a37.173,37.173,0,0,0-3.685-.763c-2.171-.773-5.035,1.593-3.535,4.157.055.094.108.19.163.284a5.245,5.245,0,0,1-5,1.775c-1.315-.138-1.629,1.376-.963,2.207v15.69h.963V20.787a7.713,7.713,0,0,0,6.4-2.035q.981,1.782,1.912,3.589a20.839,20.839,0,0,0-4.483,4.224,1.415,1.415,0,0,0-.2,1.612,1.754,1.754,0,0,0,.054.534q.751,2.968,1.5,5.938c.532,2.111,3.87,1.508,3.334-.613l-1.5-5.939c-.006-.023-.013-.044-.02-.068a16.017,16.017,0,0,1,3.7-3.226c.169,3.3.337,6.8.507,9.854a1.7,1.7,0,0,0,3.386-.177c-.232-4.2-.464-9.251-.7-13.451a1.638,1.638,0,0,0-.329-.931,3.386,3.386,0,0,0-.226-.565q-.989-1.926-2.038-3.824.441.117.878.238c.958,1.554,2.019,3.54,3.482,4.469C29.128,21.531,30.736,18.753,28.994,17.647Z" transform="translate(-10.414 -5.06)" fill="#05445e"/>
      <path id="Path_127" data-name="Path 127" d="M20.076,1.791A2.712,2.712,0,0,0,16.618.14a2.713,2.713,0,0,0-1.871,3.344Z" transform="translate(-12.238 0)" fill="#05445e"/>
      <path id="Path_128" data-name="Path 128" d="M12.464,6.828,21.052,4.1c.128-.041.213-.137.189-.215L19.288,3.6,13.734,5.365l-1.548,1.4C12.211,6.84,12.335,6.869,12.464,6.828Z" transform="translate(-11.181 -1.557)" fill="#05445e"/>
      <path id="Path_129" data-name="Path 129" d="M19.373,9.408A2.75,2.75,0,0,0,21.16,5.953l-5.242,1.67A2.749,2.749,0,0,0,19.373,9.408Z" transform="translate(-12.795 -2.575)" fill="#05445e"/>
    </g>
  </g>
</svg>
