<svg xmlns="http://www.w3.org/2000/svg" width="275.838" height="273.786" viewBox="0 0 275.838 273.786">
  <g id="man" transform="translate(-17.271 1251.751)">
    <path id="Path_562" data-name="Path 562" d="M152.365-1251.51a10.591,10.591,0,0,0-6.712,5.658,9.426,9.426,0,0,0-1.077,4.238c-.115,1.374-.229,3.115-.229,3.871v1.329l-.435-.527c-.3-.367-.527-.481-.687-.321a28.8,28.8,0,0,0-.55,6.643,2.69,2.69,0,0,0,.412,1.031,5.738,5.738,0,0,1,.55,1.375c.458,1.6,1.374,3.253,1.741,3.138.412-.183.5.481.389,3.161l-.092,2.291L143.225-1218a32.121,32.121,0,0,1-2.772,1.764,19.991,19.991,0,0,0-2.405,1.764,13.49,13.49,0,0,1-4.971,2.84c-.916.206-1.1.733-.87,2.543.344,2.634.321,2.932-.275,2.726a1.9,1.9,0,0,1-.55-.183,13.536,13.536,0,0,1,.3-1.443c.321-1.306.321-1.466-.069-2.291-.527-1.054-1.466-1.7-3.482-2.405a11.431,11.431,0,0,0-7.262.092c-1.008.344-2.863.893-4.123,1.214-2.909.779-3.665,1.168-5.521,2.932l-1.535,1.42-3.23.137a48.21,48.21,0,0,0-5.864.664,32.255,32.255,0,0,1-6.643.55c-3.826.023-4.146,0-6.987-.733-2.955-.733-2.955-.733-3.551-.3s-.618.435-.893-.023-.458-.458-3.642-.344c-3.6.115-4.307.229-8.751,1.443a31.145,31.145,0,0,1-5.933,1.031,43.983,43.983,0,0,0-7.56,1.352,73.146,73.146,0,0,1-10.858,2.062,11.776,11.776,0,0,0-3.207.687c-.893.435-1.4.481-6.575.458-7.445-.046-8.636.137-9.3,1.42-.275.527-.481.664-.825.573a2.431,2.431,0,0,0-1.352.321,4.494,4.494,0,0,1-1.535.435,1.229,1.229,0,0,0-1.031.5c-.3.435-.412.481-.6.206s-.321-.3-.8-.069c-.527.229-.6.366-.458,1.123a1.994,1.994,0,0,1-.435,1.7,7.5,7.5,0,0,0-.733,1.352c-.115.366-.229.435-.412.252s-.367-.138-.641.114c-.367.321-.367.435-.092.87.275.412.252.71-.183,2.36-.55,2.13-.5,2.268.893,2.589,1.1.252,1.558,0,2.153-1.146.5-1.008.641-1.077,1.008-.573a1.272,1.272,0,0,0,.8.39c.687.092,1.9-1.489,1.764-2.291-.069-.527.206-.71.367-.229.137.412,2.841.389,3.8-.023.527-.229.733-.458.733-.847s.137-.55.435-.55a2.634,2.634,0,0,0,.779-.137c.229-.069.412.046.5.366.137.458.252.481,1.672.321a5.817,5.817,0,0,1,2.955.115,19.672,19.672,0,0,0,3.253.3l2.291.023,1.535-1.351c1.741-1.535,1.352-1.489,5.59-.664,1.581.321,3.8.664,4.925.8a24.342,24.342,0,0,1,6.552,1.558,41.68,41.68,0,0,0,8.957,2.589,41.254,41.254,0,0,0,7.857-.115c3.161-.206,5.956-.435,6.254-.5.619-.183.619-.5.069-3.024-.435-1.97-.3-2.566.206-.916.435,1.535,1.122,2.7,1.672,2.955.435.183.893.069,2.451-.619,2.451-1.077,2.863-1.077,8.338.115a63.4,63.4,0,0,0,12.622,1.535c4.009.161,6.116-.183,10.767-1.741,3.322-1.123,3.826-1.146,4.467-.229.573.8.87.848,2.039.229a6.424,6.424,0,0,0,2.772-3.276l.6-1.329-.046,2.589-.069,2.588-1.558.871c-1.81,1.008-2.589,1.7-2.589,2.245,0,.206.3,1.6.664,3.115.367,1.489.848,3.62,1.054,4.742.435,2.5,1.237,4.444,3.207,7.926,1.558,2.772,1.718,3.115,3.528,8.018,1.558,4.238,2.062,5.314,2.566,5.429.55.16.985,2.2.893,4.306a101.038,101.038,0,0,0,.115,10.148,3.313,3.313,0,0,1-.344,2.291,25.784,25.784,0,0,0-2.291,8.865c0,.894.137,1.146,1.26,2.314,1.031,1.1,1.191,1.375.962,1.649a8.461,8.461,0,0,0-.275,3.07v2.726l-.8-.137a4.489,4.489,0,0,1-1.352-.5c-.321-.206-.618-.252-.756-.115a15.77,15.77,0,0,0-.55,3.161c-.412,3.665-.55,4.33-2.039,10.285-2.68,10.675-3.322,15.325-2.863,21.3.527,6.918,2.337,13.79,4.513,17.089.527.8.619,1.237.733,3.253.16,2.612.389,3.184,1.4,3.6.458.183.664.412.6.618a2.055,2.055,0,0,0-.137.779c0,.275-.229.481-.733.618-.848.206-.87.3-1.306,3.94a29.624,29.624,0,0,1-1.077,4.7c-1.718,5.521-1.9,6.414-1.9,9.553a24.884,24.884,0,0,0,.435,5.269c.252,1.283.71,4.353,1.031,6.826.321,2.451,1.008,6.873,1.512,9.782.481,2.932.893,5.612.893,5.956,0,.367.321,2.337.733,4.375.687,3.6.71,3.826.412,5.383-.6,3.207-.573,3.78.137,4.536l.641.664-.5.527a1.127,1.127,0,0,0-.367,1.008,6.492,6.492,0,0,1-.458,2.2,12.2,12.2,0,0,0-.6,2.245c0,1.054-1.581,3.826-2.726,4.788a22.218,22.218,0,0,0-4.215,5.223c-.229.871.046,2.749.458,2.978a2.076,2.076,0,0,1,.6.756,1.275,1.275,0,0,0,.779.618,1.925,1.925,0,0,1,.893.527,1.566,1.566,0,0,0,1.008.435,1.389,1.389,0,0,1,.916.344,1.423,1.423,0,0,0,1.856-.023c.344-.321.435-.3.962.229.5.5.8.6,1.856.6a2.806,2.806,0,0,0,2.863-1.81,2.089,2.089,0,0,1,.825-.893,4.188,4.188,0,0,0,1.168-1.1c.641-.825.664-.962.687-3.5a10.328,10.328,0,0,1,.779-4.719,10.547,10.547,0,0,1,1.329-2.68c.871-.939.916-2.52.183-5.315-.344-1.26-.573-2.291-.55-2.291.046-.023.344-.16.71-.321.527-.229.619-.412.619-1.122a12.172,12.172,0,0,0-.573-2.7c-.893-2.863-.939-4.788-.252-10.125.321-2.543.687-6.208.825-8.132.275-3.78.573-4.9,2.268-8.934,1.7-3.963,1.718-7.01.137-14.73-1.031-5.04-1.054-4.765.641-8.819.825-1.947,1.558-3.78,1.626-4.055.206-.664-.344-.939-2.153-1.146-1.4-.137-1.4-.137-1.329-.848.069-.6.3-.824,1.626-1.581a8.531,8.531,0,0,0,1.9-1.4,9.1,9.1,0,0,0,.573-2.428,12.721,12.721,0,0,1,.412-2.268,6.617,6.617,0,0,0,.344-1.741c.481-4.146,1.856-13.012,2.428-15.692a52.3,52.3,0,0,0,1.512-11.568,48.614,48.614,0,0,0-.5-9.736c-.115-.573-.092-.573,1.329-.6l1.466-.023-.3,1.168c-.458,1.787-.618,7.812-.321,11.821a75.584,75.584,0,0,0,1.283,8.59c1.1,5.475,2.062,11.545,2.382,15.279a11.613,11.613,0,0,0,.573,3.024,9.122,9.122,0,0,1,.5,2.268c.183,1.9.6,2.451,2.589,3.6,1.214.71,1.4.894,1.4,1.489,0,.664-.023.687-1.26.733-1.489.069-2.176.366-2.176.985a31.594,31.594,0,0,0,1.535,4.055c1.741,4.1,1.764,4.421,1.008,8.086-1.283,6.254-1.581,10.95-.848,13.4.229.756.916,2.565,1.558,4.009l1.145,2.634.321,4.009c.183,2.2.6,6.162.916,8.819.687,5.475.641,6.9-.252,9.8-.733,2.428-.8,3.551-.229,3.963a1.5,1.5,0,0,0,.756.321c.229,0,.275.138.16.527-.092.275-.252.962-.367,1.535-.092.573-.3,1.443-.412,1.947a3.894,3.894,0,0,0,.229,3.207,31.094,31.094,0,0,1,1.168,3.092,8.5,8.5,0,0,1,.527,4.284c-.183,2.657.092,3.688,1.191,4.65a6.181,6.181,0,0,1,1.283,1.649,2.678,2.678,0,0,0,2.841,1.649c1.077.023,1.329-.069,1.764-.573.5-.6.527-.6,1.054-.16a1.4,1.4,0,0,0,1.97-.183.587.587,0,0,1,.641-.183,1.278,1.278,0,0,0,1.054-.344,2.8,2.8,0,0,1,.962-.481,3.23,3.23,0,0,0,1.145-.916,3.762,3.762,0,0,0,.779-4.1,22.517,22.517,0,0,0-3.459-4.375,11.693,11.693,0,0,1-2.772-5.04,19.908,19.908,0,0,0-.6-2.245,5.709,5.709,0,0,1-.344-2.245c.115-.664.046-.848-.435-1.145l-.55-.367.825-.916c.573-.641.779-1.054.71-1.4-.069-.275-.3-1.4-.527-2.474l-.412-1.993.618-3.505c.344-1.947.664-4.055.756-4.673.069-.642.435-2.795.8-4.811.344-2.016.962-5.933,1.352-8.7.367-2.772.962-6.483,1.306-8.247a25.528,25.528,0,0,0,.619-6.185c-.023-3.276-.183-4.078-2.039-9.85a25.645,25.645,0,0,1-1.306-5.681c-.252-2.382-.275-2.474-.848-2.589-.321-.069-.71-.16-.848-.206-.16-.046-.3-.435-.367-.893-.069-.71-.023-.847.573-1.077,1.008-.412,1.237-1.031,1.352-3.459a7.14,7.14,0,0,1,.939-3.8c2.749-5.292,4.009-10.835,4.215-18.372.183-6.574-.183-9.072-3.024-20.846-.687-2.841-1.4-6.506-1.6-8.132-.55-4.421-.55-4.421-1.626-3.917a7.718,7.718,0,0,1-1.352.435l-.71.137.092-2.222a13.743,13.743,0,0,0-.137-3.047c-.183-.71-.137-.894.389-1.512,1.191-1.421,1.626-1.924,1.741-2.108a25.144,25.144,0,0,0-.733-5.521,31.314,31.314,0,0,0-1.26-3.757c-.825-1.993-.893-2.36-.733-3.322a54.638,54.638,0,0,0,.115-8.728,11.348,11.348,0,0,1,0-2.52c.092-.435.252-1.191.321-1.7.092-.573.275-.916.573-.985.5-.137,1.352-1.947,3.184-6.8a46.657,46.657,0,0,1,2.841-6.185,25.591,25.591,0,0,0,3.917-10.446,38.268,38.268,0,0,1,1.054-4.215,15.21,15.21,0,0,0,.458-1.512c0-.389-1.374-1.489-2.978-2.336l-1.718-.939v-1.512a21.872,21.872,0,0,0-.16-2.611c-.16-.985-.137-1.077.275-1.077.344,0,.618.389,1.1,1.443a6.955,6.955,0,0,0,2.955,3.505c.87.389,1.306.252,1.626-.5.389-.8,1.283-.733,4.879.458,5.475,1.81,6.712,1.947,14.02,1.489a51.135,51.135,0,0,0,8.407-1.145c6.323-1.283,6.116-1.283,8.7-.229,2.634,1.077,3.024.962,4.078-1.122.252-.527.275-.5.137.344-.069.5-.183,1.191-.252,1.535-.115.527-.023.664.5.871a61.3,61.3,0,0,0,6.46.618c8.086.527,8.682.435,17.479-2.657a25.6,25.6,0,0,1,5.383-1.283c1.512-.206,4.009-.618,5.544-.939,3.482-.733,3.917-.687,4.627.412.687,1.077,2.176,1.581,5.567,1.9a7.571,7.571,0,0,1,1.558.573c.985.458,1.26.5,1.626.275.573-.367.893-.183.893.5,0,.962,2.108,2.428,3.528,2.428.458,0,1.97-1.328,1.97-1.741a5.47,5.47,0,0,0-1.764-2.359c-.756-.687-.985-1.031-.8-1.145a.443.443,0,0,0,.137-.55c-.115-.321,0-.344.756-.252.481.069,1.054.161,1.26.206a.575.575,0,0,0,.55-.137.466.466,0,0,1,.367-.206c.16,0,.137.115-.023.321-.389.481.916,1.145,1.878.962.664-.137.664-.115.527.573-.115.6-.023.825.55,1.352.55.5.664.779.573,1.283-.16.779.6,2.153,1.168,2.153.619,0,1.237-.458,1.237-.916,0-.641,1.054-.619,1.26,0a1.658,1.658,0,0,0,1.924,1.008c1.1-.229,1.26-.8.756-2.795a3.727,3.727,0,0,1-.229-1.787.4.4,0,0,0,.092-.458.383.383,0,0,1,.115-.458c.137-.092.092-.3-.16-.573-.275-.3-.481-.366-.664-.206-.412.344-1.512-1.81-1.535-3.024a3.336,3.336,0,0,0-.252-1.283c-.275-.344-1.008-.366-1.122-.023-.046.16-.848-.092-2.108-.687-1.626-.779-2.085-.893-2.36-.664-.252.206-.367.206-.55-.069a1.426,1.426,0,0,1-.206-.6c0-.481-1.122-1.054-2.589-1.328a63.411,63.411,0,0,0-6.872-.206c-4.146.023-5.612-.046-6.071-.275-.916-.435-2.337-.733-5.59-1.123a65.4,65.4,0,0,1-7.01-1.375c-5.2-1.306-5.8-1.42-9.278-1.718a31.09,31.09,0,0,1-5.36-.939,30.279,30.279,0,0,0-8.659-1.581c-2.795-.161-3.551-.115-4.1.137-.458.229-.756.252-.916.091-.435-.435-1.168-.321-7.1,1.1-1.237.3-7.7-.138-10.881-.756a30.126,30.126,0,0,0-5.635-.573c-2.841,0-3.024-.069-4.627-1.856-1.008-1.1-2.566-1.9-5.131-2.634-1.191-.321-3.138-.916-4.33-1.283a10.178,10.178,0,0,0-7.308-.046,6.369,6.369,0,0,0-2.818,1.512c-.687.687-.87.779-.87.435,0-.55-.344-.8-1.489-1.168a12.507,12.507,0,0,1-4.49-2.657c-.985-.779-2.039-1.558-2.314-1.718a39.217,39.217,0,0,1-5.681-3.963c0-.138-.069-1.352-.115-2.68-.092-2.13-.046-2.451.275-2.405.435.023,1.306-1.42,1.7-2.841a5.738,5.738,0,0,1,.55-1.374c.481-.6.573-1.879.344-4.811s-.481-3.642-1.008-2.933c-.252.344-.321.023-.458-2.061-.229-3.757-.527-5.246-1.466-7.033a9.908,9.908,0,0,0-4.7-4.582,7.122,7.122,0,0,0-4.123-.962A13.077,13.077,0,0,0,152.365-1251.51Zm26.573,44.647a.637.637,0,0,1-.229.527c-.137.092-.229-.206-.229-.733,0-.641.069-.779.229-.527A1.715,1.715,0,0,1,178.938-1206.863Z" fill="#00a4e0"/>
  </g>
</svg>
