<svg xmlns="http://www.w3.org/2000/svg" width="368.926" height="366.182" viewBox="0 0 368.926 366.182">
  <g id="man" transform="translate(-17.271 1251.751)">
    <path id="Path_562" data-name="Path 562" d="M197.956-1251.429a14.166,14.166,0,0,0-8.977,7.568,12.608,12.608,0,0,0-1.44,5.669c-.153,1.838-.306,4.167-.306,5.178v1.777l-.582-.7c-.4-.49-.7-.643-.919-.429-.368.368-.98,7.6-.735,8.885a3.6,3.6,0,0,0,.551,1.379,7.672,7.672,0,0,1,.735,1.838c.613,2.145,1.838,4.351,2.329,4.2.551-.245.674.643.521,4.228l-.123,3.064-3.278,2.175a42.99,42.99,0,0,1-3.707,2.359,26.734,26.734,0,0,0-3.217,2.359,18.039,18.039,0,0,1-6.649,3.8c-1.226.276-1.471.98-1.164,3.4.46,3.523.429,3.922-.368,3.646a2.535,2.535,0,0,1-.735-.245,18.109,18.109,0,0,1,.4-1.93c.429-1.747.429-1.961-.092-3.064-.7-1.409-1.961-2.267-4.657-3.217a15.289,15.289,0,0,0-9.712.123c-1.348.46-3.83,1.195-5.515,1.624-3.891,1.042-4.9,1.562-7.384,3.922l-2.053,1.9-4.32.184a64.488,64.488,0,0,0-7.843.889,43.135,43.135,0,0,1-8.885.735c-5.117.031-5.546,0-9.345-.98-3.952-.981-3.952-.981-4.749-.4s-.827.582-1.195-.031-.613-.613-4.872-.459c-4.81.153-5.76.306-11.7,1.93a41.66,41.66,0,0,1-7.935,1.379,58.817,58.817,0,0,0-10.111,1.808,97.8,97.8,0,0,1-14.523,2.757,15.748,15.748,0,0,0-4.289.919c-1.195.582-1.869.644-8.793.613-9.958-.061-11.551.184-12.439,1.9-.368.7-.643.888-1.1.766a3.249,3.249,0,0,0-1.808.429,6.013,6.013,0,0,1-2.053.582,1.644,1.644,0,0,0-1.379.674c-.4.582-.551.644-.8.276s-.429-.4-1.072-.092c-.7.306-.8.49-.613,1.5a2.667,2.667,0,0,1-.582,2.267,10.039,10.039,0,0,0-.98,1.808c-.153.49-.306.582-.551.337s-.49-.184-.858.153c-.49.429-.49.582-.123,1.164.368.551.337.95-.245,3.156-.735,2.849-.674,3.033,1.195,3.462,1.471.337,2.083,0,2.88-1.532.674-1.348.858-1.44,1.348-.766a1.7,1.7,0,0,0,1.072.521c.919.122,2.543-1.992,2.359-3.064-.092-.7.276-.95.49-.306.184.552,3.8.521,5.086-.031.7-.306.98-.612.98-1.133s.184-.735.582-.735a3.521,3.521,0,0,0,1.042-.184c.306-.092.551.061.674.49.184.613.337.643,2.237.429,2.39-.245,2.267-.245,3.952.153a26.312,26.312,0,0,0,4.351.4l3.064.031,2.053-1.808c2.329-2.053,1.808-1.992,7.476-.889,2.114.429,5.086.889,6.587,1.072a32.558,32.558,0,0,1,8.763,2.083,55.764,55.764,0,0,0,11.98,3.462c2.267.276,4.381.245,10.509-.153,4.228-.276,7.966-.582,8.364-.674.827-.245.827-.674.092-4.044-.582-2.635-.4-3.432.276-1.226.582,2.052,1.5,3.615,2.237,3.952.582.245,1.195.092,3.278-.827,3.278-1.44,3.83-1.44,11.152.154a84.812,84.812,0,0,0,16.882,2.052c5.362.215,8.181-.245,14.4-2.328,4.443-1.5,5.117-1.532,5.975-.307.766,1.072,1.164,1.134,2.727.307a8.592,8.592,0,0,0,3.707-4.381l.8-1.777-.061,3.463-.092,3.462-2.083,1.164c-2.421,1.348-3.462,2.267-3.462,3,0,.276.4,2.145.889,4.167.49,1.992,1.134,4.841,1.409,6.342.582,3.339,1.654,5.944,4.289,10.6,2.083,3.707,2.3,4.167,4.718,10.724,2.083,5.668,2.757,7.108,3.432,7.261.735.215,1.317,2.941,1.195,5.76a135.125,135.125,0,0,0,.153,13.573,4.432,4.432,0,0,1-.46,3.064,34.485,34.485,0,0,0-3.064,11.857c0,1.2.184,1.532,1.685,3.095,1.379,1.471,1.593,1.839,1.287,2.206-.245.306-.368,1.685-.368,4.105v3.646l-1.072-.184a6,6,0,0,1-1.808-.674c-.429-.276-.827-.337-1.011-.153a21.094,21.094,0,0,0-.735,4.228c-.552,4.9-.735,5.791-2.727,13.757-3.585,14.278-4.443,20.5-3.83,28.494.7,9.253,3.125,18.444,6.036,22.856.7,1.073.827,1.655.98,4.351.214,3.493.521,4.259,1.869,4.81.613.245.889.551.8.827a2.749,2.749,0,0,0-.184,1.042c0,.368-.306.643-.98.827-1.134.276-1.164.4-1.746,5.27a39.625,39.625,0,0,1-1.44,6.281c-2.3,7.384-2.543,8.579-2.543,12.776a33.279,33.279,0,0,0,.582,7.047c.337,1.716.95,5.821,1.379,9.13.429,3.279,1.348,9.192,2.022,13.083.643,3.922,1.195,7.506,1.195,7.966,0,.49.429,3.125.98,5.852.919,4.81.95,5.117.551,7.2-.8,4.289-.766,5.056.184,6.066l.858.888-.674.7a1.507,1.507,0,0,0-.49,1.348,8.682,8.682,0,0,1-.613,2.941,16.322,16.322,0,0,0-.8,3c0,1.409-2.114,5.117-3.646,6.4-1.838,1.563-5.3,5.852-5.637,6.986-.306,1.164.061,3.677.613,3.983a2.778,2.778,0,0,1,.8,1.011,1.7,1.7,0,0,0,1.042.827,2.574,2.574,0,0,1,1.195.7,2.094,2.094,0,0,0,1.348.582,1.857,1.857,0,0,1,1.226.46,1.9,1.9,0,0,0,2.482-.031c.46-.429.582-.4,1.287.306.674.674,1.072.8,2.482.8a3.753,3.753,0,0,0,3.83-2.42,2.794,2.794,0,0,1,1.1-1.195,5.6,5.6,0,0,0,1.563-1.471c.858-1.1.889-1.287.919-4.688a13.813,13.813,0,0,1,1.042-6.311,14.107,14.107,0,0,1,1.777-3.585c1.164-1.256,1.226-3.37.245-7.108-.46-1.685-.766-3.064-.735-3.064.061-.031.46-.214.95-.429.7-.306.827-.551.827-1.5a16.281,16.281,0,0,0-.766-3.615c-1.195-3.83-1.256-6.4-.337-13.542.429-3.4.919-8.3,1.1-10.877.368-5.055.766-6.557,3.033-11.949,2.267-5.3,2.3-9.375.184-19.7-1.379-6.741-1.409-6.373.858-11.8,1.1-2.6,2.083-5.055,2.175-5.423.276-.888-.46-1.256-2.88-1.532-1.869-.184-1.869-.184-1.777-1.133.092-.8.4-1.1,2.175-2.114a11.408,11.408,0,0,0,2.543-1.869,12.178,12.178,0,0,0,.766-3.247,17.017,17.017,0,0,1,.551-3.033,8.85,8.85,0,0,0,.46-2.329c.643-5.546,2.482-17.4,3.248-20.988a69.955,69.955,0,0,0,2.022-15.472,65.019,65.019,0,0,0-.674-13.021c-.153-.766-.123-.766,1.777-.8l1.961-.031-.4,1.562c-.613,2.39-.827,10.448-.429,15.81a101.091,101.091,0,0,0,1.716,11.49c1.471,7.323,2.757,15.442,3.186,20.436a15.534,15.534,0,0,0,.766,4.044,12.2,12.2,0,0,1,.674,3.033c.245,2.543.8,3.278,3.462,4.81,1.624.95,1.869,1.2,1.869,1.992,0,.888-.031.919-1.685.98-1.992.092-2.911.49-2.911,1.317a42.273,42.273,0,0,0,2.053,5.423c2.329,5.484,2.359,5.913,1.348,10.815-1.716,8.365-2.114,14.645-1.134,17.924.306,1.011,1.226,3.431,2.083,5.362l1.532,3.523.429,5.362c.245,2.941.8,8.242,1.226,11.8.919,7.323.858,9.222-.337,13.113-.98,3.248-1.072,4.749-.306,5.3a2.008,2.008,0,0,0,1.011.429c.306,0,.368.184.214.7-.123.368-.337,1.287-.49,2.053-.123.766-.4,1.93-.551,2.6a5.208,5.208,0,0,0,.306,4.29,41.575,41.575,0,0,1,1.563,4.136,11.371,11.371,0,0,1,.7,5.729c-.245,3.554.123,4.933,1.593,6.22a8.264,8.264,0,0,1,1.716,2.206c.827,1.624,1.777,2.206,3.8,2.206,1.44.031,1.777-.092,2.359-.766.674-.8.7-.8,1.409-.214a1.878,1.878,0,0,0,2.635-.245.785.785,0,0,1,.858-.245,1.71,1.71,0,0,0,1.409-.46,3.744,3.744,0,0,1,1.287-.643,4.319,4.319,0,0,0,1.532-1.226,5.032,5.032,0,0,0,1.042-5.484,30.117,30.117,0,0,0-4.626-5.852,15.638,15.638,0,0,1-3.707-6.74,26.635,26.635,0,0,0-.8-3,7.636,7.636,0,0,1-.46-3c.153-.888.061-1.133-.582-1.532l-.735-.49,1.1-1.226c.766-.858,1.042-1.409.95-1.869-.092-.368-.4-1.869-.7-3.309l-.551-2.665.827-4.688c.46-2.6.888-5.423,1.011-6.25.092-.858.582-3.738,1.072-6.434.46-2.7,1.287-7.935,1.808-11.642.49-3.707,1.287-8.671,1.746-11.03a34.141,34.141,0,0,0,.827-8.273c-.031-4.381-.245-5.454-2.727-13.174a34.3,34.3,0,0,1-1.746-7.6c-.337-3.186-.368-3.309-1.134-3.462-.429-.092-.95-.215-1.134-.276-.214-.061-.4-.582-.49-1.2-.092-.95-.031-1.133.766-1.44,1.348-.551,1.654-1.379,1.808-4.626a9.55,9.55,0,0,1,1.256-5.086c3.677-7.078,5.362-14.492,5.638-24.572.245-8.793-.245-12.133-4.044-27.881-.919-3.8-1.869-8.7-2.145-10.877-.735-5.913-.735-5.913-2.175-5.239a10.307,10.307,0,0,1-1.808.582l-.95.183.123-2.972a18.382,18.382,0,0,0-.184-4.075c-.245-.95-.184-1.2.521-2.022,1.593-1.9,2.175-2.574,2.329-2.819.214-.368-.4-5.025-.98-7.384a41.89,41.89,0,0,0-1.685-5.025c-1.1-2.666-1.195-3.156-.98-4.443a73.075,73.075,0,0,0,.153-11.673,15.176,15.176,0,0,1,0-3.37c.123-.582.337-1.593.429-2.267.123-.766.368-1.226.766-1.318.674-.184,1.808-2.6,4.259-9.1a62.4,62.4,0,0,1,3.8-8.272c3.309-5.7,3.952-7.415,5.239-13.971a51.187,51.187,0,0,1,1.409-5.637,20.35,20.35,0,0,0,.613-2.022c0-.521-1.838-1.991-3.983-3.125l-2.3-1.256v-2.022a29.244,29.244,0,0,0-.214-3.493c-.214-1.318-.184-1.44.368-1.44.46,0,.827.521,1.471,1.93,1.042,2.3,2.6,4.136,3.952,4.688,1.164.521,1.746.337,2.175-.674.521-1.072,1.716-.981,6.526.612,7.323,2.42,8.977,2.6,18.751,1.992a68.4,68.4,0,0,0,11.244-1.532c8.456-1.716,8.18-1.716,11.643-.307,3.523,1.44,4.044,1.287,5.454-1.5.337-.7.368-.674.184.459-.092.674-.245,1.593-.337,2.053-.153.7-.031.888.674,1.164a81.988,81.988,0,0,0,8.64.827c10.815.7,11.612.582,23.377-3.554a34.237,34.237,0,0,1,7.2-1.716c2.022-.275,5.362-.827,7.415-1.256,4.657-.98,5.239-.919,6.189.551.919,1.44,2.911,2.114,7.445,2.543a10.133,10.133,0,0,1,2.083.766c1.317.613,1.685.674,2.175.368.766-.49,1.195-.245,1.195.674,0,1.287,2.819,3.247,4.718,3.247.613,0,2.635-1.777,2.635-2.329,0-.582-1.134-2.083-2.359-3.156-1.011-.919-1.317-1.379-1.072-1.532a.592.592,0,0,0,.184-.735c-.153-.429,0-.459,1.011-.337.643.092,1.409.215,1.685.276a.769.769,0,0,0,.735-.184.624.624,0,0,1,.49-.275c.214,0,.184.153-.031.429-.521.644,1.225,1.532,2.512,1.287.889-.184.889-.153.7.766-.153.8-.031,1.1.735,1.808.735.674.889,1.042.766,1.715-.214,1.042.8,2.88,1.563,2.88.827,0,1.655-.613,1.655-1.226,0-.858,1.409-.828,1.685,0a2.218,2.218,0,0,0,2.574,1.348c1.471-.306,1.685-1.072,1.011-3.738a4.984,4.984,0,0,1-.306-2.39.539.539,0,0,0,.122-.613.512.512,0,0,1,.153-.612c.184-.123.123-.4-.214-.766-.368-.4-.643-.49-.888-.276-.551.46-2.022-2.421-2.053-4.044a4.464,4.464,0,0,0-.337-1.716c-.368-.459-1.348-.49-1.5-.03-.061.214-1.134-.122-2.819-.919-2.175-1.042-2.788-1.195-3.156-.888-.337.276-.49.276-.735-.092a1.907,1.907,0,0,1-.276-.8c0-.643-1.5-1.409-3.462-1.777a84.877,84.877,0,0,0-9.192-.276c-5.546.031-7.506-.061-8.119-.368-1.226-.582-3.125-.981-7.476-1.5a87.472,87.472,0,0,1-9.375-1.838c-6.955-1.746-7.752-1.9-12.409-2.3a41.57,41.57,0,0,1-7.169-1.256c-5.883-1.655-6.924-1.839-11.581-2.114-3.738-.215-4.749-.153-5.484.184-.613.306-1.011.337-1.226.122-.582-.582-1.563-.429-9.5,1.471-1.654.4-10.295-.184-14.553-1.011a40.29,40.29,0,0,0-7.537-.766c-3.8,0-4.044-.092-6.189-2.482-1.348-1.471-3.432-2.543-6.863-3.524-1.593-.429-4.2-1.225-5.791-1.716-3.83-1.226-6.25-1.256-9.774-.062a8.52,8.52,0,0,0-3.769,2.022c-.919.919-1.164,1.042-1.164.582,0-.735-.46-1.072-1.992-1.562a16.73,16.73,0,0,1-6.005-3.554c-1.317-1.042-2.727-2.084-3.094-2.3-1.685-.858-7.6-4.964-7.6-5.3,0-.184-.092-1.808-.153-3.585-.123-2.849-.061-3.278.368-3.217.582.031,1.746-1.9,2.267-3.8a7.677,7.677,0,0,1,.735-1.838c.643-.8.766-2.513.46-6.434s-.643-4.872-1.348-3.922c-.337.46-.429.031-.613-2.757-.306-5.025-.7-7.016-1.961-9.406a13.252,13.252,0,0,0-6.281-6.128c-2.206-1.1-2.6-1.194-5.515-1.287A17.5,17.5,0,0,0,197.956-1251.429Zm35.541,59.715a.852.852,0,0,1-.306.7c-.184.123-.306-.276-.306-.98,0-.858.092-1.042.306-.7A2.294,2.294,0,0,1,233.5-1191.714Z" transform="translate(0)" fill="#48c9b0"/>
  </g>
</svg>
