<svg xmlns="http://www.w3.org/2000/svg" width="407.82" height="404.786" viewBox="0 0 407.82 404.786">
  <g id="man" transform="translate(-17.271 1251.751)">
    <path id="Path_562" data-name="Path 562" d="M217-1251.4a15.659,15.659,0,0,0-9.924,8.365c-1.084,2.2-1.287,3.049-1.592,6.266-.169,2.032-.339,4.606-.339,5.724v1.964l-.644-.779c-.44-.542-.779-.711-1.016-.474-.406.407-1.084,8.4-.813,9.822a3.98,3.98,0,0,0,.61,1.524,8.482,8.482,0,0,1,.813,2.032c.677,2.371,2.032,4.809,2.574,4.64.61-.271.745.711.576,4.674l-.135,3.387-3.624,2.4a47.49,47.49,0,0,1-4.1,2.608,29.568,29.568,0,0,0-3.556,2.608c-2.879,2.337-5.216,3.658-7.349,4.2-1.355.3-1.626,1.084-1.287,3.76.508,3.894.474,4.335-.406,4.03a2.812,2.812,0,0,1-.813-.271,20.01,20.01,0,0,1,.44-2.134c.474-1.93.474-2.167-.1-3.387-.779-1.558-2.168-2.506-5.148-3.556a16.9,16.9,0,0,0-10.736.135c-1.49.508-4.234,1.321-6.1,1.795-4.3,1.152-5.419,1.727-8.162,4.335l-2.269,2.1-4.775.2a71.306,71.306,0,0,0-8.67.982,47.686,47.686,0,0,1-9.822.813c-5.656.034-6.13,0-10.33-1.083-4.369-1.084-4.369-1.084-5.25-.441s-.914.643-1.321-.034-.677-.677-5.385-.508c-5.317.169-6.367.339-12.938,2.134a46.041,46.041,0,0,1-8.772,1.524,65.043,65.043,0,0,0-11.177,2,108.133,108.133,0,0,1-16.054,3.048,17.408,17.408,0,0,0-4.742,1.016c-1.321.644-2.066.712-9.72.677-11.007-.068-12.768.2-13.751,2.1-.406.779-.711.982-1.219.847a3.6,3.6,0,0,0-2,.474,6.644,6.644,0,0,1-2.269.644,1.818,1.818,0,0,0-1.524.745c-.44.644-.61.711-.881.305s-.474-.441-1.185-.1c-.779.339-.881.542-.677,1.66a2.949,2.949,0,0,1-.644,2.506,11.085,11.085,0,0,0-1.084,2c-.169.542-.339.643-.61.373s-.542-.2-.948.169c-.542.474-.542.644-.135,1.287.406.61.373,1.05-.271,3.489-.813,3.149-.745,3.353,1.321,3.827,1.626.373,2.3,0,3.184-1.693.745-1.49.948-1.592,1.49-.847a1.881,1.881,0,0,0,1.185.576c1.016.135,2.811-2.2,2.608-3.387-.1-.779.3-1.05.542-.339.2.61,4.2.576,5.622-.034.779-.339,1.084-.677,1.084-1.253s.2-.813.644-.813a3.892,3.892,0,0,0,1.152-.2c.339-.1.61.068.745.542.2.677.373.711,2.472.474,2.642-.271,2.506-.271,4.369.169a29.091,29.091,0,0,0,4.809.44l3.387.034,2.269-2c2.574-2.269,2-2.2,8.264-.982,2.337.474,5.622.982,7.282,1.185a35.994,35.994,0,0,1,9.686,2.3,61.609,61.609,0,0,0,13.243,3.827c2.506.305,4.843.271,11.617-.169,4.674-.305,8.806-.643,9.246-.745.914-.271.914-.745.1-4.47-.644-2.913-.44-3.794.3-1.355.644,2.269,1.66,4,2.472,4.369.644.271,1.321.1,3.624-.915,3.624-1.592,4.234-1.592,12.328.17a93.735,93.735,0,0,0,18.662,2.269c5.927.237,9.043-.271,15.918-2.574,4.911-1.66,5.656-1.694,6.6-.339.847,1.185,1.287,1.253,3.014.339,1.66-.847,2.947-2.371,4.1-4.843l.881-1.965-.068,3.828-.1,3.827-2.3,1.287c-2.676,1.49-3.827,2.506-3.827,3.319,0,.3.44,2.371.982,4.606.542,2.2,1.253,5.351,1.558,7.011.644,3.692,1.829,6.571,4.742,11.719,2.3,4.1,2.54,4.606,5.216,11.854,2.3,6.265,3.048,7.857,3.793,8.027.813.237,1.456,3.252,1.321,6.367a149.388,149.388,0,0,0,.169,15,4.9,4.9,0,0,1-.508,3.386c-1.829,3.827-3.387,9.924-3.387,13.107,0,1.321.2,1.694,1.863,3.421,1.524,1.626,1.761,2.032,1.422,2.439-.271.339-.406,1.863-.406,4.538v4.031l-1.185-.2a6.638,6.638,0,0,1-2-.745c-.474-.305-.914-.373-1.118-.169a23.314,23.314,0,0,0-.813,4.674c-.61,5.419-.813,6.4-3.014,15.207-3.963,15.783-4.911,22.658-4.234,31.5.779,10.228,3.455,20.389,6.672,25.266.779,1.186.914,1.829,1.084,4.809.237,3.861.576,4.708,2.066,5.318.677.271.982.609.881.914a3.039,3.039,0,0,0-.2,1.152c0,.406-.339.711-1.084.914-1.253.3-1.287.44-1.931,5.825a43.8,43.8,0,0,1-1.592,6.943c-2.54,8.162-2.811,9.483-2.811,14.123a36.792,36.792,0,0,0,.643,7.79c.373,1.9,1.05,6.435,1.524,10.092.474,3.624,1.49,10.161,2.235,14.462.711,4.335,1.321,8.3,1.321,8.806,0,.542.474,3.455,1.084,6.469,1.016,5.317,1.05,5.656.61,7.959-.881,4.742-.847,5.589.2,6.706l.948.982-.745.779a1.666,1.666,0,0,0-.542,1.49,9.6,9.6,0,0,1-.677,3.252,18.045,18.045,0,0,0-.881,3.319c0,1.558-2.337,5.656-4.03,7.078-2.032,1.727-5.859,6.469-6.232,7.722-.339,1.287.068,4.064.677,4.4a3.07,3.07,0,0,1,.881,1.118,1.884,1.884,0,0,0,1.152.914,2.847,2.847,0,0,1,1.321.779,2.314,2.314,0,0,0,1.49.643,2.053,2.053,0,0,1,1.355.508,2.1,2.1,0,0,0,2.743-.034c.508-.474.643-.441,1.422.338.745.745,1.185.881,2.743.881a4.149,4.149,0,0,0,4.234-2.676,3.09,3.09,0,0,1,1.219-1.321,6.192,6.192,0,0,0,1.727-1.626c.948-1.219.982-1.423,1.016-5.182.034-3.556.135-4.234,1.152-6.977a15.591,15.591,0,0,1,1.964-3.963c1.287-1.389,1.355-3.726.271-7.858-.508-1.863-.847-3.387-.813-3.387.068-.034.508-.237,1.05-.474.779-.339.914-.61.914-1.66a18,18,0,0,0-.847-4c-1.321-4.234-1.389-7.079-.373-14.97.474-3.759,1.016-9.178,1.219-12.023.406-5.588.847-7.248,3.353-13.209,2.506-5.859,2.54-10.364.2-21.778-1.524-7.451-1.558-7.045.948-13.039,1.219-2.879,2.3-5.588,2.4-5.995.3-.982-.508-1.388-3.184-1.694-2.066-.2-2.066-.2-1.964-1.253.1-.88.44-1.219,2.4-2.337a12.613,12.613,0,0,0,2.811-2.066,13.46,13.46,0,0,0,.847-3.59,18.808,18.808,0,0,1,.61-3.353,9.783,9.783,0,0,0,.508-2.574c.711-6.13,2.743-19.238,3.59-23.2a77.325,77.325,0,0,0,2.235-17.1,71.872,71.872,0,0,0-.745-14.394c-.169-.847-.135-.847,1.964-.881l2.168-.034-.44,1.727c-.677,2.642-.914,11.549-.474,17.477a111.751,111.751,0,0,0,1.9,12.7c1.626,8.095,3.048,17.07,3.522,22.59a17.168,17.168,0,0,0,.847,4.471,13.489,13.489,0,0,1,.745,3.353c.271,2.811.881,3.624,3.827,5.317,1.795,1.05,2.066,1.321,2.066,2.2,0,.982-.034,1.016-1.863,1.084-2.2.1-3.217.542-3.217,1.456a46.716,46.716,0,0,0,2.269,6c2.574,6.062,2.608,6.537,1.49,11.956-1.9,9.246-2.337,16.189-1.253,19.814.339,1.117,1.355,3.793,2.3,5.927l1.693,3.895.474,5.927c.271,3.251.881,9.111,1.355,13.039,1.016,8.095.948,10.195-.373,14.5-1.084,3.59-1.185,5.25-.339,5.859a2.219,2.219,0,0,0,1.118.474c.339,0,.406.2.237.779-.135.407-.373,1.423-.542,2.269-.135.847-.44,2.134-.61,2.879a5.757,5.757,0,0,0,.339,4.742,45.974,45.974,0,0,1,1.727,4.572,12.569,12.569,0,0,1,.779,6.333c-.271,3.929.136,5.453,1.761,6.875a9.14,9.14,0,0,1,1.9,2.439c.914,1.8,1.964,2.439,4.2,2.439,1.592.034,1.964-.1,2.608-.847.745-.881.779-.881,1.558-.237a2.075,2.075,0,0,0,2.913-.271.868.868,0,0,1,.948-.271,1.89,1.89,0,0,0,1.558-.508,4.137,4.137,0,0,1,1.422-.711,4.775,4.775,0,0,0,1.693-1.355,5.562,5.562,0,0,0,1.152-6.062,33.288,33.288,0,0,0-5.114-6.469,17.287,17.287,0,0,1-4.1-7.451,29.429,29.429,0,0,0-.881-3.319,8.442,8.442,0,0,1-.508-3.319c.169-.982.068-1.253-.644-1.693l-.813-.542,1.219-1.355c.847-.948,1.151-1.558,1.05-2.066-.1-.407-.44-2.066-.779-3.658l-.61-2.946.914-5.182c.508-2.879.982-5.995,1.118-6.909.1-.948.643-4.132,1.185-7.113.508-2.98,1.422-8.772,2-12.87.542-4.1,1.423-9.585,1.931-12.193a37.742,37.742,0,0,0,.914-9.145c-.034-4.843-.271-6.029-3.014-14.563a37.914,37.914,0,0,1-1.931-8.4c-.373-3.522-.406-3.658-1.253-3.827-.474-.1-1.05-.237-1.253-.3-.237-.068-.44-.644-.542-1.321-.1-1.05-.034-1.253.847-1.592,1.49-.61,1.829-1.524,2-5.114.169-2.912.3-3.488,1.389-5.622,4.064-7.824,5.927-16.02,6.232-27.163.271-9.72-.271-13.412-4.471-30.821-1.016-4.2-2.066-9.619-2.371-12.023-.813-6.536-.813-6.536-2.4-5.792a11.4,11.4,0,0,1-2,.644l-1.05.2.136-3.285a20.319,20.319,0,0,0-.2-4.5c-.271-1.05-.2-1.321.576-2.235,1.761-2.1,2.4-2.845,2.574-3.116.237-.406-.44-5.554-1.084-8.162a46.291,46.291,0,0,0-1.863-5.554c-1.219-2.947-1.321-3.489-1.084-4.911a80.785,80.785,0,0,0,.169-12.9,16.779,16.779,0,0,1,0-3.725c.135-.644.373-1.761.474-2.506.135-.847.406-1.355.847-1.456.745-.2,2-2.879,4.708-10.059a68.978,68.978,0,0,1,4.2-9.145c3.658-6.3,4.369-8.2,5.791-15.444a56.579,56.579,0,0,1,1.558-6.231,22.485,22.485,0,0,0,.677-2.236c0-.575-2.032-2.2-4.4-3.454l-2.54-1.389v-2.235a32.336,32.336,0,0,0-.237-3.861c-.237-1.456-.2-1.592.406-1.592.508,0,.914.575,1.626,2.134,1.152,2.54,2.879,4.572,4.369,5.182,1.287.576,1.931.373,2.4-.745.576-1.185,1.9-1.084,7.214.677,8.095,2.676,9.924,2.879,20.728,2.2a75.611,75.611,0,0,0,12.43-1.694c9.348-1.9,9.043-1.9,12.87-.339,3.895,1.592,4.471,1.422,6.029-1.659.373-.779.406-.745.2.508-.1.745-.271,1.761-.373,2.269-.169.779-.034.982.745,1.287a90.648,90.648,0,0,0,9.551.914c11.956.779,12.836.644,25.842-3.929a37.859,37.859,0,0,1,7.959-1.9c2.235-.3,5.927-.914,8.2-1.388,5.148-1.083,5.792-1.016,6.841.609,1.016,1.592,3.218,2.337,8.23,2.812a11.193,11.193,0,0,1,2.3.847c1.456.677,1.863.745,2.4.406.847-.542,1.321-.271,1.321.745,0,1.422,3.116,3.59,5.216,3.59.677,0,2.913-1.964,2.913-2.574,0-.643-1.253-2.3-2.608-3.488-1.118-1.016-1.456-1.524-1.185-1.693a.655.655,0,0,0,.2-.813c-.169-.474,0-.508,1.118-.373.711.1,1.558.237,1.863.3a.85.85,0,0,0,.813-.2.689.689,0,0,1,.542-.3c.237,0,.2.169-.034.474-.576.711,1.355,1.693,2.777,1.422.982-.2.982-.169.779.847-.169.88-.034,1.219.813,2,.813.745.982,1.151.847,1.9-.237,1.151.881,3.184,1.727,3.184.914,0,1.829-.678,1.829-1.355,0-.948,1.558-.915,1.863,0a2.452,2.452,0,0,0,2.845,1.49c1.626-.338,1.863-1.185,1.118-4.132a5.51,5.51,0,0,1-.339-2.641.6.6,0,0,0,.135-.678.567.567,0,0,1,.169-.677c.2-.136.135-.44-.237-.847-.406-.44-.711-.542-.982-.3-.61.508-2.235-2.676-2.269-4.471a4.932,4.932,0,0,0-.372-1.9c-.406-.508-1.49-.542-1.66-.034-.068.237-1.253-.135-3.116-1.016-2.4-1.152-3.082-1.321-3.489-.982-.373.3-.542.3-.813-.1a2.109,2.109,0,0,1-.3-.881c0-.711-1.66-1.558-3.827-1.964a93.736,93.736,0,0,0-10.161-.3c-6.13.034-8.3-.068-8.975-.406-1.355-.644-3.455-1.084-8.264-1.66a96.724,96.724,0,0,1-10.364-2.032c-7.688-1.93-8.569-2.1-13.717-2.54a45.943,45.943,0,0,1-7.925-1.388c-6.5-1.829-7.654-2.032-12.8-2.337-4.132-.237-5.25-.169-6.062.2-.677.339-1.118.372-1.355.135-.644-.643-1.727-.474-10.5,1.626-1.829.44-11.38-.2-16.088-1.118a44.545,44.545,0,0,0-8.332-.846c-4.2,0-4.471-.1-6.841-2.743-1.49-1.626-3.793-2.811-7.587-3.895-1.761-.474-4.64-1.355-6.4-1.9-4.234-1.355-6.909-1.389-10.8-.068a9.416,9.416,0,0,0-4.166,2.236c-1.016,1.016-1.287,1.151-1.287.643,0-.813-.508-1.185-2.2-1.727-2.269-.711-3.895-1.693-6.638-3.929-1.456-1.152-3.014-2.3-3.421-2.54-1.863-.949-8.4-5.487-8.4-5.859,0-.2-.1-2-.169-3.963-.135-3.15-.068-3.624.406-3.556.643.034,1.931-2.1,2.506-4.2a8.481,8.481,0,0,1,.813-2.032c.711-.881.847-2.777.508-7.112s-.711-5.385-1.49-4.336c-.373.509-.474.035-.677-3.048-.339-5.554-.779-7.756-2.168-10.4a14.649,14.649,0,0,0-6.943-6.774c-2.439-1.219-2.879-1.32-6.1-1.422A19.328,19.328,0,0,0,217-1251.4Zm39.288,66.01a.941.941,0,0,1-.339.779c-.2.136-.339-.3-.339-1.084,0-.948.1-1.151.339-.779A2.534,2.534,0,0,1,256.292-1185.385Z" transform="translate(0 0)" fill="#00a4e0"/>
  </g>
</svg>
