<svg xmlns="http://www.w3.org/2000/svg" width="27.682" height="37.508" viewBox="0 0 27.682 37.508">
  <g id="stretching-exercises" transform="translate(-8.102 0)">
    <g id="Group_47" data-name="Group 47" transform="translate(8.102 0)">
      <path id="Path_134" data-name="Path 134" d="M33.566.008a16.276,16.276,0,0,0-13.037,7.87A62.66,62.66,0,0,0,14.073,20.16,98.281,98.281,0,0,0,8.24,34.25c-.953,2.833,3.325,4.681,4.283,1.835a111.863,111.863,0,0,1,4.164-10.69c1.579,3.534,3.183,7.056,4.906,10.523,1.335,2.691,5.353.331,4.023-2.351C23.842,30,22.194,26.373,20.571,22.736c.021-.07.047-.139.069-.209a1.919,1.919,0,0,0,.9.038l7.453-1.4a1.887,1.887,0,0,0,1.3-2.291c-.5-2.787-2.09-4.726-4.067-6.561a6.528,6.528,0,0,0-2.358-2.758c2.2-3.559,5.8-5.491,10.475-5.9C36.728,3.444,35.933-.2,33.566.008ZM24.517,15.852a8.674,8.674,0,0,1,1.532,2.09l-3.606.676A20.4,20.4,0,0,1,24.517,15.852Z" transform="translate(-8.102 0)" fill="#05445e"/>
      <circle id="Ellipse_44" data-name="Ellipse 44" cx="3.198" cy="3.198" r="3.198" transform="translate(18.358 6.282)" fill="#05445e"/>
    </g>
  </g>
</svg>
