<svg xmlns="http://www.w3.org/2000/svg" width="237" height="275.004" viewBox="0 0 237 275.004">
  <g id="_320266_1_" data-name="320266 (1)" transform="translate(-119.404 1296.916)">
    <path id="Path_561" data-name="Path 561" d="M233.721-1227.349a13.586,13.586,0,0,0-7.919,6.65c-1.41,2.749-1.786,4.488-1.786,8.53-.023,2.491-.094,3.407-.282,3.337-.47-.165-.564.258-.8,3.454-.235,3.078-.047,4.934.47,4.934.141,0,.235.235.235.541,0,.823,1.574,3.924,2,3.924.188,0,.352-.211.352-.47,0-.846.352-.493.916.963a11.518,11.518,0,0,0,1.292,2.4c1.128,1.5,1.527,2.82,1.692,5.71.258,4.088-.517,5.8-3.125,6.979a27.194,27.194,0,0,1-6.18,1.809,1.359,1.359,0,0,0-.869.282,7.843,7.843,0,0,0-.4,2.42c-.094,1.151-.188,2.138-.212,2.162a6.967,6.967,0,0,1-1.034-.235c-1.1-.282-1.081-.212-.4-2.867a4.125,4.125,0,0,0,.188-1.339,4.233,4.233,0,0,0-1.386-.306c-2-.258-6.7.47-12.172,1.856-5.029,1.293-11.89,2.7-15.791,3.243a54.65,54.65,0,0,1-5.874.282,36.405,36.405,0,0,1-7.9-.752c-2.279-.4-4.465-.752-4.817-.752-.376,0-1.692-.07-2.914-.141-2.091-.141-5.475.047-17.858.987-6.368.47-9.94.423-12.689-.141-3.078-.635-5.24-.822-6.3-.517-.47.141-1.292.353-1.809.494a4.237,4.237,0,0,0-1.527.776c-.329.306-.658.517-.775.47-.376-.118-2.42,1.1-3.125,1.88a17.9,17.9,0,0,0-1.6,2.3c-.47.846-.987,1.692-1.1,1.88a6.3,6.3,0,0,0-.446.893c-.634,1.48-.47,2.185.54,2.232.564.047.587.094.47,1.151l-.141,1.128h.775a1.3,1.3,0,0,0,1.41-1.316,2.1,2.1,0,0,1,.587-1.128,2.125,2.125,0,0,0,.587-1.1c0-.306.164-.447.564-.447a2.268,2.268,0,0,0,1.175-.493c.517-.4.94-.494,2.679-.494a17.2,17.2,0,0,1,3.1.258,13.962,13.962,0,0,0,5.593-.094c1.128-.329,1.339-.329,3.031.094a84.624,84.624,0,0,0,9.587,1.763c6.25.963,11.35,1.833,15.673,2.632,2.326.423,3.337.54,3.666.352.305-.164.517-.164.728.047.188.188,1.856.329,5.264.423a77.614,77.614,0,0,1,7.8.587c2.35.353,4.347.423,12.219.446a105.44,105.44,0,0,1,10.974.306,20.88,20.88,0,0,1,5.781,1.856,2.815,2.815,0,0,0,1.292.47,6.806,6.806,0,0,0,.728-2.42c.235-1.269.47-2.444.54-2.608.141-.376.916-.4,1.151-.047.282.493.094,2.89-.376,4.605-.54,1.974-.587,2.679-.188,3.078a5.836,5.836,0,0,1,.329,2.35,7.488,7.488,0,0,0,1.5,5c.564.705.752,1.316,1.175,3.877.681,3.995,3.642,13.37,4.371,13.793.775.447.094,4.888-1.457,9.681a9.037,9.037,0,0,1-1.833,3.713,3.875,3.875,0,0,1-1.363,1.386c-.587.094-2.514,3.736-3.854,7.284a9.045,9.045,0,0,0-.893,4.418,17.522,17.522,0,0,0,.423,3.431c.493,1.9.493,1.9-.423,2.209-1.41.446-1.645.963-3.031,6.462-1.645,6.533-1.809,7.778-1.809,13.605,0,10.433,1.316,18.728,5.029,31.37a51.81,51.81,0,0,1,2.185,11.773c.212,1.974.188,1.95,2.3,1.527l.94-.188-1.1,1.2c-1.621,1.715-1.739,2.209-1.927,6.862-.094,2.255-.376,5.334-.611,6.814-1.551,9.446-1.739,14.616-.728,19.5.282,1.363.775,4.723,1.081,7.472a126.821,126.821,0,0,0,2.35,14.357c1.2,5.9,1.292,7.073.611,7.073a1.129,1.129,0,0,0-.728.353,1.357,1.357,0,0,1-.963.305,1.033,1.033,0,0,0-1.057.47,1.185,1.185,0,0,1-.822.517.812.812,0,0,0-.681.588.813.813,0,0,1-.7.587c-.658,0-1.128,1.034-.752,1.668a2.119,2.119,0,0,1,.282,1.034c0,.916.611,1.974,2.021,3.454a11.282,11.282,0,0,1,2.091,3.172c1.222,2.632,2.444,3.807,4.582,4.277a4.23,4.23,0,0,0,5.146-2.7,42.573,42.573,0,0,0,.329-5.029c.047-2.8.188-4.3.4-4.676a6.928,6.928,0,0,0,.141-3.008,36.57,36.57,0,0,1,.423-7.19c.329-2.608.869-7.237,1.2-10.269.587-5.311.658-5.663,1.833-9.047l1.222-3.525-.023-4.935a70.5,70.5,0,0,0-.4-8.154c-.212-1.762-.4-3.995-.4-4.935a48.468,48.468,0,0,1,.94-7.943,16.076,16.076,0,0,0,.376-2.7c.188-2.35-.07-3.031-1.9-5.005a6.8,6.8,0,0,1-1.245-1.574,5.05,5.05,0,0,1,1.5.118,15.4,15.4,0,0,0,1.692.235c.212,0,.282-.776.282-3.125a111.488,111.488,0,0,1,1.974-21.994,83.433,83.433,0,0,0,1.48-16.237,35.316,35.316,0,0,0-.4-4.794c-.258-.822-.211-1.057.423-2.467.376-.846.752-1.715.822-1.927.094-.282.376-.376.893-.353.7.024.8.141,1.551,1.88l.775,1.833-.353,2c-.752,4.3-.282,11.138,1.527,22.041a86.9,86.9,0,0,1,1.551,16.637l.165,6.556,1.081-.141c.587-.094,1.363-.211,1.739-.282.869-.188.8.117-.329,1.2a14.076,14.076,0,0,0-1.645,1.974c-.846,1.292-.893,2.7-.211,6.156.258,1.316.587,3.689.752,5.311a25.258,25.258,0,0,1-.141,6.72c-.564,5.029-.752,11.7-.376,13.605a26.017,26.017,0,0,0,.987,3.454c1.151,3.337,1.316,4.112,2.068,10.95.4,3.619.916,8.224,1.175,10.245a19.319,19.319,0,0,1,.188,5.8c-.235,1.9-.211,2.209.141,2.749s.423,1.175.4,4.324c-.047,4.606.212,5.945,1.363,7.1,2.232,2.232,6.415,1.316,8.083-1.786.212-.4.658-1.316.963-2.068a11.6,11.6,0,0,1,1.856-2.7c1.457-1.527,1.809-2.115,1.809-2.961a3.184,3.184,0,0,1,.282-1.2c.329-.752-.07-1.762-.7-1.762a.945.945,0,0,1-.7-.587.926.926,0,0,0-.658-.588,1.78,1.78,0,0,1-.94-.587c-.446-.493-.658-.564-1.01-.376-.329.188-.54.141-.846-.211a1.357,1.357,0,0,0-.752-.47c-.564,0-.352-2.115.752-7.425a122.657,122.657,0,0,0,2.326-14.31c.329-2.726.822-5.992,1.081-7.284,1.01-4.77.869-9.188-.587-18.328a73.577,73.577,0,0,1-.7-7.637c-.188-4.7-.423-5.569-2.068-7.261l-.987-1.011,1.057.188c2.091.353,1.974.423,2.162-1.668a61.5,61.5,0,0,1,2.749-13.629c3.36-11.7,4.488-19.221,4.488-29.631,0-5.992-.141-7.12-1.9-13.911-1.269-4.934-1.551-5.475-2.937-5.921a2.982,2.982,0,0,1-.8-.353c0-.047.211-.963.47-2.044a10.514,10.514,0,0,0-.4-7.284c-1.269-3.5-3.36-7.566-3.948-7.66-.258-.023-.728-.447-1.057-.94-.305-.47-.728-1.081-.94-1.339a13.638,13.638,0,0,1-1.128-2.7c-1.833-5.475-2.42-9.352-1.48-9.846a1.757,1.757,0,0,0,.587-1.01c.094-.423.54-1.786.987-3.008a48.922,48.922,0,0,0,2.7-9.752c.446-2.561.634-3.2,1.175-3.877a7.46,7.46,0,0,0,1.48-4.817,4.661,4.661,0,0,1,.47-2.561c.423-.658.423-.7-.094-2.467-.681-2.256-.916-4.911-.446-5.216.987-.611,1.269.024,1.974,4.3.164,1.034.446,1.1,1.6.423a20.281,20.281,0,0,1,5.4-1.786c1.621-.353,3.572-.423,11.8-.446,8.248-.024,10.269-.117,12.337-.47,2.021-.329,9.587-.8,13.511-.822a24.39,24.39,0,0,0,3.29-.47c1.292-.258,3.149-.587,4.112-.7.963-.141,3.83-.611,6.344-1.058s6.274-1.057,8.342-1.386,4.841-.87,6.156-1.2c2.232-.541,2.467-.541,3.384-.235a14.3,14.3,0,0,0,5.663.118,22.921,22.921,0,0,1,3.008-.447c2.256-.211,3.76.07,3.948.7a2.574,2.574,0,0,0,.4.682,3.311,3.311,0,0,1,.446,1.175c.235,1.292.4,1.434,1.386,1.151.47-.117.869-.376.869-.541,0-.188.329-.446.7-.587.94-.306.94-1.152,0-2.984a8.543,8.543,0,0,1-.7-1.692,5.43,5.43,0,0,0-1.386-2.42c-.681-.681-2.937-1.9-3.149-1.715-.07.07-.376-.141-.7-.47a4.124,4.124,0,0,0-1.6-.846c-.564-.141-1.433-.376-1.927-.517-.963-.282-4.089.023-7.1.682-1.316.305-2.538.353-6.227.235-5.569-.188-10.88-.494-16.707-1.01a47.094,47.094,0,0,0-9.963,0c-.775.047-3.172.423-5.311.823a36.343,36.343,0,0,1-11.678.47,151.9,151.9,0,0,1-16.143-3.172c-5.5-1.551-11.256-2.444-13.276-2.045-1.2.235-1.222.306-.634,2.8l.329,1.433-.963.258a2.879,2.879,0,0,1-1.034.164,16.008,16.008,0,0,1-.211-2.162c-.141-2.279-.305-2.655-1.222-2.655a25.382,25.382,0,0,1-6.626-2.021c-1.339-.658-1.645-.94-2.115-1.9-.517-1.01-.564-1.457-.564-4.183,0-3.2.305-4.512,1.339-6.039a28.9,28.9,0,0,0,1.95-4.065c.164-.447.188-.423.329.118.282,1.081.822.8,1.621-.8a8.032,8.032,0,0,0,.752-1.833,3.835,3.835,0,0,1,.423-1.128,5.339,5.339,0,0,0,.611-3.078,15.034,15.034,0,0,1-.211-2.444c-.047-2.044-.353-3.1-.8-2.843a18.137,18.137,0,0,1-.165-3.337,18.443,18.443,0,0,0-.54-5.31,14,14,0,0,0-9.047-9.823,10.639,10.639,0,0,0-4.723-.634A12.514,12.514,0,0,0,233.721-1227.349Z" transform="translate(0 -69)" fill="#11987e"/>
  </g>
</svg>
