<svg xmlns="http://www.w3.org/2000/svg" width="284.418" height="330.025" viewBox="0 0 284.418 330.025">
  <g id="_320266_1_" data-name="320266 (1)" transform="translate(-119.404 1296.916)">
    <path id="Path_561" data-name="Path 561" d="M256.593-1227.235a16.3,16.3,0,0,0-9.5,7.981c-1.692,3.3-2.143,5.386-2.143,10.236-.028,2.989-.113,4.089-.338,4-.564-.2-.677.31-.959,4.146-.282,3.694-.056,5.922.564,5.922.169,0,.282.282.282.649,0,.987,1.889,4.709,2.4,4.709.226,0,.423-.254.423-.564,0-1.015.423-.592,1.1,1.156a13.828,13.828,0,0,0,1.551,2.877c1.354,1.8,1.833,3.384,2.03,6.852.31,4.906-.62,6.965-3.751,8.375a32.637,32.637,0,0,1-7.416,2.171,1.631,1.631,0,0,0-1.043.339,9.411,9.411,0,0,0-.479,2.9c-.113,1.381-.226,2.566-.254,2.594a8.322,8.322,0,0,1-1.241-.282c-1.325-.338-1.3-.254-.479-3.44a4.951,4.951,0,0,0,.226-1.607,5.076,5.076,0,0,0-1.664-.367c-2.4-.31-8.037.564-14.607,2.228-6.035,1.551-14.269,3.243-18.95,3.892a65.571,65.571,0,0,1-7.05.339,43.69,43.69,0,0,1-9.475-.9c-2.735-.479-5.358-.9-5.781-.9-.451,0-2.03-.085-3.5-.169-2.51-.169-6.57.057-21.432,1.184-7.642.564-11.928.508-15.228-.169-3.694-.761-6.288-.987-7.557-.62-.564.169-1.551.423-2.171.592a5.088,5.088,0,0,0-1.833.931c-.395.367-.79.62-.931.564-.451-.141-2.9,1.325-3.751,2.256a21.5,21.5,0,0,0-1.918,2.763c-.564,1.015-1.184,2.031-1.325,2.256a7.568,7.568,0,0,0-.536,1.072c-.761,1.776-.564,2.623.649,2.679.677.056.7.113.564,1.382l-.169,1.354h.931a1.556,1.556,0,0,0,1.692-1.579,2.516,2.516,0,0,1,.7-1.354,2.549,2.549,0,0,0,.7-1.325c0-.367.2-.536.677-.536a2.722,2.722,0,0,0,1.41-.592c.62-.48,1.128-.593,3.215-.593a20.623,20.623,0,0,1,3.722.31,16.763,16.763,0,0,0,6.711-.113c1.354-.395,1.607-.395,3.638.113a101.624,101.624,0,0,0,11.505,2.115c7.5,1.156,13.62,2.2,18.809,3.158,2.792.507,4,.648,4.4.423.367-.2.62-.2.874.057.226.225,2.228.395,6.317.507a93.233,93.233,0,0,1,9.362.7c2.82.423,5.217.508,14.664.536a126.546,126.546,0,0,1,13.169.367,25.052,25.052,0,0,1,6.937,2.228,3.381,3.381,0,0,0,1.551.564,8.169,8.169,0,0,0,.874-2.9c.282-1.523.564-2.932.649-3.13.169-.451,1.1-.479,1.382-.056.338.592.113,3.468-.451,5.527-.649,2.369-.705,3.215-.226,3.694a7,7,0,0,1,.395,2.82c.056,2.763.564,4.484,1.8,6.006.677.846.9,1.579,1.41,4.653.818,4.794,4.371,16.045,5.245,16.553.931.536.113,5.866-1.748,11.618a10.846,10.846,0,0,1-2.2,4.455,4.649,4.649,0,0,1-1.636,1.664c-.7.113-3.017,4.484-4.625,8.742a10.854,10.854,0,0,0-1.072,5.3,21.026,21.026,0,0,0,.508,4.117c.592,2.284.592,2.284-.508,2.651-1.692.536-1.974,1.156-3.638,7.755-1.974,7.84-2.171,9.334-2.171,16.327,0,12.521,1.579,22.475,6.035,37.646a62.176,62.176,0,0,1,2.623,14.128c.254,2.369.226,2.34,2.764,1.833l1.128-.226-1.325,1.438c-1.946,2.059-2.087,2.651-2.312,8.234-.113,2.707-.451,6.4-.733,8.178-1.861,11.336-2.087,17.54-.874,23.406.338,1.636.931,5.668,1.3,8.967a152.2,152.2,0,0,0,2.82,17.23c1.438,7.078,1.551,8.488.733,8.488a1.355,1.355,0,0,0-.874.423,1.629,1.629,0,0,1-1.156.367,1.24,1.24,0,0,0-1.269.564,1.423,1.423,0,0,1-.987.62.975.975,0,0,0-.818.705.975.975,0,0,1-.846.7c-.79,0-1.354,1.241-.9,2a2.543,2.543,0,0,1,.338,1.241c0,1.1.733,2.369,2.425,4.145a13.536,13.536,0,0,1,2.51,3.807c1.466,3.158,2.933,4.568,5.5,5.132,2.792.62,5.527-.818,6.176-3.243a51.093,51.093,0,0,0,.395-6.035c.056-3.356.226-5.16.479-5.612.254-.536.31-1.438.169-3.609a43.886,43.886,0,0,1,.508-8.629c.395-3.13,1.043-8.685,1.438-12.323.705-6.373.79-6.8,2.2-10.857l1.466-4.23-.028-5.922a84.6,84.6,0,0,0-.479-9.785c-.254-2.115-.479-4.794-.479-5.922a58.166,58.166,0,0,1,1.128-9.532,19.289,19.289,0,0,0,.451-3.243c.226-2.82-.085-3.638-2.284-6.006a8.166,8.166,0,0,1-1.495-1.889,6.063,6.063,0,0,1,1.8.141,18.445,18.445,0,0,0,2.03.282c.254,0,.338-.931.338-3.75a133.792,133.792,0,0,1,2.369-26.395,100.128,100.128,0,0,0,1.777-19.486,42.378,42.378,0,0,0-.479-5.753c-.31-.987-.254-1.269.508-2.961.451-1.015.9-2.058.987-2.312.113-.338.451-.451,1.072-.423.846.028.959.169,1.861,2.256l.931,2.2-.423,2.4c-.9,5.161-.338,13.366,1.833,26.451a104.29,104.29,0,0,1,1.861,19.965l.2,7.868,1.3-.169c.7-.113,1.636-.254,2.087-.338,1.043-.226.959.141-.395,1.438a16.91,16.91,0,0,0-1.974,2.369c-1.015,1.551-1.072,3.243-.254,7.388.31,1.579.7,4.427.9,6.373a30.311,30.311,0,0,1-.169,8.065c-.677,6.035-.9,14.043-.451,16.328a31.216,31.216,0,0,0,1.184,4.145c1.382,4,1.579,4.935,2.482,13.141.479,4.343,1.1,9.87,1.41,12.3.451,3.75.508,4.822.226,6.965-.282,2.284-.254,2.651.169,3.3s.508,1.41.479,5.189c-.056,5.527.254,7.134,1.636,8.516,2.679,2.679,7.7,1.579,9.7-2.143.254-.479.79-1.579,1.156-2.482a13.918,13.918,0,0,1,2.228-3.243c1.748-1.833,2.171-2.538,2.171-3.553a3.822,3.822,0,0,1,.338-1.438c.395-.9-.085-2.115-.846-2.115a1.135,1.135,0,0,1-.846-.7,1.111,1.111,0,0,0-.79-.705,2.136,2.136,0,0,1-1.128-.7c-.536-.592-.79-.677-1.212-.451-.395.226-.649.169-1.015-.254a1.628,1.628,0,0,0-.9-.564c-.677,0-.423-2.538.9-8.911a147.2,147.2,0,0,0,2.792-17.173c.395-3.271.987-7.191,1.3-8.742,1.213-5.724,1.043-11.026-.705-22a88.3,88.3,0,0,1-.846-9.165c-.226-5.64-.508-6.683-2.482-8.713l-1.184-1.213,1.269.226c2.51.423,2.369.508,2.594-2,.564-6.006,1.128-8.714,3.3-16.356,4.033-14.043,5.386-23.067,5.386-35.559,0-7.191-.169-8.544-2.284-16.694-1.523-5.922-1.861-6.571-3.525-7.106a3.584,3.584,0,0,1-.959-.423c0-.056.254-1.156.564-2.453a12.618,12.618,0,0,0-.479-8.742c-1.523-4.2-4.032-9.08-4.738-9.193-.31-.028-.874-.536-1.269-1.128-.367-.564-.874-1.3-1.128-1.607a16.358,16.358,0,0,1-1.354-3.243c-2.2-6.57-2.9-11.223-1.777-11.815a2.108,2.108,0,0,0,.7-1.213c.113-.508.649-2.144,1.184-3.61a58.709,58.709,0,0,0,3.243-11.7c.536-3.074.761-3.835,1.41-4.653a8.953,8.953,0,0,0,1.776-5.781,5.6,5.6,0,0,1,.564-3.074c.508-.789.508-.846-.113-2.961-.818-2.707-1.1-5.894-.536-6.26,1.184-.733,1.523.028,2.369,5.161.2,1.241.536,1.325,1.918.507a24.34,24.34,0,0,1,6.486-2.143c1.946-.423,4.286-.508,14.156-.536,9.9-.028,12.323-.141,14.8-.564,2.425-.395,11.505-.959,16.215-.987a29.243,29.243,0,0,0,3.948-.564c1.551-.31,3.779-.7,4.935-.846,1.156-.169,4.6-.733,7.614-1.269s7.529-1.269,10.011-1.664,5.809-1.043,7.388-1.438c2.679-.649,2.961-.649,4.061-.282a17.16,17.16,0,0,0,6.8.141,27.506,27.506,0,0,1,3.609-.536c2.707-.254,4.512.084,4.738.846a3.092,3.092,0,0,0,.479.818,3.974,3.974,0,0,1,.536,1.41c.282,1.551.479,1.72,1.664,1.382.564-.141,1.043-.451,1.043-.649,0-.226.395-.536.846-.7,1.128-.367,1.128-1.382,0-3.582a10.252,10.252,0,0,1-.846-2.03,6.516,6.516,0,0,0-1.664-2.9c-.818-.818-3.525-2.284-3.779-2.058-.085.085-.451-.169-.846-.564a4.951,4.951,0,0,0-1.918-1.015c-.677-.169-1.72-.451-2.312-.62-1.156-.338-4.907.028-8.516.818-1.579.367-3.046.423-7.473.282-6.683-.225-13.056-.592-20.05-1.213a56.52,56.52,0,0,0-11.956,0c-.931.057-3.807.508-6.373.987a43.615,43.615,0,0,1-14.015.564,182.248,182.248,0,0,1-19.373-3.807c-6.6-1.861-13.508-2.933-15.933-2.454-1.438.282-1.466.367-.761,3.356l.395,1.72-1.156.31a3.454,3.454,0,0,1-1.241.2,19.206,19.206,0,0,1-.254-2.594c-.169-2.735-.367-3.187-1.466-3.187a30.464,30.464,0,0,1-7.952-2.425c-1.607-.79-1.974-1.128-2.538-2.284-.62-1.213-.677-1.748-.677-5.02,0-3.835.367-5.414,1.607-7.247a34.691,34.691,0,0,0,2.341-4.879c.2-.536.226-.508.395.141.338,1.3.987.959,1.946-.959a9.637,9.637,0,0,0,.9-2.2,4.6,4.6,0,0,1,.508-1.354c.592-1.072,1.015-3.243.733-3.694a18.035,18.035,0,0,1-.254-2.933c-.056-2.453-.423-3.722-.959-3.412a21.763,21.763,0,0,1-.2-4,22.133,22.133,0,0,0-.649-6.373,16.8,16.8,0,0,0-10.857-11.788,12.77,12.77,0,0,0-5.668-.761A15.019,15.019,0,0,0,256.593-1227.235Z" transform="translate(0 -69)" fill="#00a4e0"/>
  </g>
</svg>
