<svg xmlns="http://www.w3.org/2000/svg" width="34.285" height="34.683" viewBox="0 0 34.285 34.683">
  <g id="arrow" transform="translate(19.393 34.683) rotate(-133)">
    <path id="Path_564" data-name="Path 564" d="M.272,15.21h0l0,0a.747.747,0,0,0-.177.216.557.557,0,0,0-.034.072.608.608,0,0,0-.047.19A.484.484,0,0,0,0,15.763c0,.013,0,.024,0,.037a.627.627,0,0,0,.06.219c0,.007.01.013.013.02a.758.758,0,0,0,.161.205c.009.009.012.02.022.029l4.581,3.864a1.051,1.051,0,0,0,1.286.012.661.661,0,0,0,.014-1.061L3.669,17a33.072,33.072,0,0,0,7.323-.228C21.942,15.355,29.692,8.113,28.267.634A.874.874,0,0,0,27.37,0a1.2,1.2,0,0,0-.142.009.784.784,0,0,0-.757.858C27.74,7.529,20.669,14,10.681,15.3a31.093,31.093,0,0,1-7.161.183l3.811-1.62a.693.693,0,0,0,.391-1.011A1.01,1.01,0,0,0,6.5,12.525L.491,15.079a.96.96,0,0,0-.218.131Z" transform="translate(0 0)" fill="#11987e"/>
  </g>
</svg>
