<svg width="28" height="28" viewBox="0 0 28 28" fill="none" xmlns="http://www.w3.org/2000/svg">
<path d="M3.8938 1.41925C3.56375 1.10047 3.1217 0.92408 2.66285 0.928068C2.20401 0.932055 1.76509 1.1161 1.44062 1.44057C1.11616 1.76503 0.932112 2.20395 0.928125 2.6628C0.924138 3.12164 1.10053 3.56369 1.4193 3.89375L11.5256 14L1.41755 24.1062C1.25041 24.2677 1.11709 24.4608 1.02538 24.6743C0.933661 24.8878 0.885386 25.1174 0.883367 25.3498C0.881348 25.5822 0.925625 25.8126 1.01362 26.0277C1.10161 26.2427 1.23155 26.4381 1.39586 26.6024C1.56018 26.7668 1.75557 26.8967 1.97064 26.9847C2.1857 27.0727 2.41614 27.117 2.64851 27.1149C2.88087 27.1129 3.11051 27.0646 3.32401 26.9729C3.53752 26.8812 3.73062 26.7479 3.89205 26.5807L14.0001 16.4745L24.1063 26.5807C24.4364 26.8995 24.8784 27.0759 25.3373 27.0719C25.7961 27.0679 26.235 26.8839 26.5595 26.5594C26.8839 26.235 27.068 25.796 27.072 25.3372C27.076 24.8784 26.8996 24.4363 26.5808 24.1062L16.4746 14L26.5808 3.89375C26.8996 3.56369 27.076 3.12164 27.072 2.6628C27.068 2.20395 26.8839 1.76503 26.5595 1.44057C26.235 1.1161 25.7961 0.932055 25.3373 0.928068C24.8784 0.92408 24.4364 1.10047 24.1063 1.41925L14.0001 11.5255L3.8938 1.4175V1.41925Z" fill="#263238"/>
</svg>
