<svg width="22" height="22" viewBox="0 0 22 22" fill="none" xmlns="http://www.w3.org/2000/svg">
<path d="M2.81891 0.815583C2.55172 0.557525 2.19387 0.414734 1.82243 0.417961C1.45098 0.421189 1.09566 0.570179 0.833001 0.83284C0.57034 1.0955 0.42135 1.45082 0.418122 1.82226C0.414894 2.19371 0.557686 2.55156 0.815744 2.81875L8.99699 11L0.814327 19.1813C0.679021 19.3119 0.571096 19.4683 0.49685 19.6411C0.422604 19.8139 0.383524 19.9998 0.381889 20.1879C0.380255 20.376 0.416099 20.5626 0.48733 20.7367C0.558561 20.9108 0.663753 21.069 0.796768 21.202C0.929782 21.335 1.08796 21.4402 1.26206 21.5114C1.43616 21.5826 1.62271 21.6185 1.81081 21.6169C1.99892 21.6152 2.18481 21.5761 2.35765 21.5019C2.53049 21.4276 2.68681 21.3197 2.81749 21.1844L11.0002 13.0032L19.1814 21.1844C19.4486 21.4425 19.8065 21.5853 20.1779 21.582C20.5493 21.5788 20.9047 21.4298 21.1673 21.1672C21.43 20.9045 21.579 20.5492 21.5822 20.1777C21.5854 19.8063 21.4426 19.4484 21.1846 19.1813L13.0033 11L21.1846 2.81875C21.4426 2.55156 21.5854 2.19371 21.5822 1.82226C21.579 1.45082 21.43 1.0955 21.1673 0.83284C20.9047 0.570179 20.5493 0.421189 20.1779 0.417961C19.8065 0.414734 19.4486 0.557525 19.1814 0.815583L11.0002 8.99683L2.81891 0.814166V0.815583Z" fill="white"/>
</svg>
