<svg width="34" height="34" viewBox="0 0 34 34" fill="none" xmlns="http://www.w3.org/2000/svg">
<path d="M8.5 19.125C9.67361 19.125 10.625 18.1736 10.625 17C10.625 15.8264 9.67361 14.875 8.5 14.875C7.32639 14.875 6.375 15.8264 6.375 17C6.375 18.1736 7.32639 19.125 8.5 19.125Z" fill="#AAAAAA"/>
<path d="M17 19.125C18.1736 19.125 19.125 18.1736 19.125 17C19.125 15.8264 18.1736 14.875 17 14.875C15.8264 14.875 14.875 15.8264 14.875 17C14.875 18.1736 15.8264 19.125 17 19.125Z" fill="#AAAAAA"/>
<path d="M25.5 19.125C26.6736 19.125 27.625 18.1736 27.625 17C27.625 15.8264 26.6736 14.875 25.5 14.875C24.3264 14.875 23.375 15.8264 23.375 17C23.375 18.1736 24.3264 19.125 25.5 19.125Z" fill="#AAAAAA"/>
</svg>
