<svg xmlns="http://www.w3.org/2000/svg" width="27.389" height="36.169" viewBox="0 0 27.389 36.169">
  <g id="exercise" transform="translate(-62.144 0)">
    <g id="Group_49" data-name="Group 49" transform="translate(82.436 7.914)">
      <g id="Group_48" data-name="Group 48" transform="translate(0)">
        <path id="Path_135" data-name="Path 135" d="M356.357,112.435a.877.877,0,0,0-1.326-.175c-1.6,1.445-1.715,1.543-2.131,1.961l-2.272-.313-.231.624a2.545,2.545,0,0,1,.111,1.928l.453.062a17.733,17.733,0,0,0-1.545,2.643,15.007,15.007,0,0,0,.394,4.267,15.99,15.99,0,0,1,3.136-6.637l.907.125a1.271,1.271,0,0,0,1.05-2.18l1.286-1.164A.892.892,0,0,0,356.357,112.435Z" transform="translate(-349.396 -112.033)" fill="#05445e"/>
      </g>
    </g>
    <g id="Group_51" data-name="Group 51" transform="translate(81.055 7.198)">
      <g id="Group_50" data-name="Group 50" transform="translate(0)">
        <path id="Path_136" data-name="Path 136" d="M331.42,101.943a.876.876,0,0,0-1.126.518l-.443,1.2a2.535,2.535,0,0,1,1.666.547l.421-1.139A.876.876,0,0,0,331.42,101.943Z" transform="translate(-329.851 -101.888)" fill="#05445e"/>
      </g>
    </g>
    <g id="Group_53" data-name="Group 53" transform="translate(62.144 14.022)">
      <g id="Group_52" data-name="Group 52" transform="translate(0)">
        <path id="Path_137" data-name="Path 137" d="M83.877,217.724a3.3,3.3,0,0,0,.856-6.043l-2.177-5.566a16,16,0,0,1-1-7.622c-.09.015.015,0-1.782.2a17.751,17.751,0,0,0,1.15,8.057l1.727,4.415-1.112-.148L80.5,208.375l-.268,2.471-3.245-.431a2.7,2.7,0,0,1-.99.949l.542.026a1.034,1.034,0,0,1,.993.963,1.017,1.017,0,0,1-1.065,1.069l-3.582-.173a1.019,1.019,0,1,1,.192-2.026,2.762,2.762,0,0,1-1.06-1.468l-1.781-.237.879-2.761a1.472,1.472,0,0,0,.062-.592l-.3-3.024a24.358,24.358,0,0,1-3.019-.6l.359,3.612-.908,2.852a5.53,5.53,0,0,0-3.366,9.6l-.817.818a.715.715,0,0,0-.084.928.7.7,0,0,0,1.06.079l1.008-1.008a5.505,5.505,0,0,0,2.562.629c.825,0,14.455-2.107,14.455-2.107l2.445,2.482a.7.7,0,1,0,1-.984Zm-12.9-3.027a3.306,3.306,0,1,1-3.473-3.473A3.318,3.318,0,0,1,70.977,214.7Z" transform="translate(-62.144 -198.493)" fill="#05445e"/>
      </g>
    </g>
    <g id="Group_55" data-name="Group 55" transform="translate(73.169 0)">
      <g id="Group_54" data-name="Group 54" transform="translate(0 0)">
        <path id="Path_138" data-name="Path 138" d="M222.315.32a2.808,2.808,0,1,0,1.336,3.455A2.808,2.808,0,0,0,222.315.32Z" transform="translate(-218.208 0)" fill="#05445e"/>
      </g>
    </g>
    <g id="Group_57" data-name="Group 57" transform="translate(67.016 5.651)">
      <g id="Group_56" data-name="Group 56" transform="translate(0)">
        <path id="Path_139" data-name="Path 139" d="M145.091,84.585l-4.373.491-2.652-3.159,2.665,1.878,3.2-.359s-4.711-2.067-7.553-3.324a1.8,1.8,0,0,0-2.31,1.18l-2.817,7.418a1.85,1.85,0,0,0,.9,2.453c.3.165.008.081,5.766,1.155l-.688,6.357a1.526,1.526,0,1,0,3.035.328l.84-7.763a1.526,1.526,0,0,0-1.238-1.665l-2.422-.452.606-1.463-1.931-4.107,3.09,3.682a1.272,1.272,0,0,0,1.116.446l5.017-.563a1.293,1.293,0,0,0,1.163-1.265A1.272,1.272,0,0,0,145.091,84.585Z" transform="translate(-131.106 -79.988)" fill="#05445e"/>
      </g>
    </g>
  </g>
</svg>
