<svg width="15" height="30" viewBox="0 0 15 30" fill="none" xmlns="http://www.w3.org/2000/svg">
<path d="M12.4047 29.7527C12.0872 29.7537 11.7735 29.6837 11.4867 29.5476C11.1999 29.4116 10.9472 29.213 10.7472 28.9664L0.483412 16.2164C0.170863 15.8362 0 15.3592 0 14.867C0 14.3748 0.170863 13.8979 0.483412 13.5177L11.1084 0.767661C11.4691 0.333701 11.9874 0.0607989 12.5493 0.00899194C13.1112 -0.042815 13.6707 0.130717 14.1047 0.491411C14.5386 0.852105 14.8115 1.37042 14.8633 1.93232C14.9151 2.49423 14.7416 3.0537 14.3809 3.48766L4.88216 14.8777L14.0622 26.2677C14.322 26.5796 14.4871 26.9594 14.5378 27.3622C14.5886 27.765 14.5229 28.1739 14.3485 28.5405C14.1741 28.9071 13.8984 29.2161 13.5539 29.4309C13.2094 29.6458 12.8106 29.7574 12.4047 29.7527Z" fill="black"/>
</svg>
