<svg xmlns="http://www.w3.org/2000/svg" width="30.069" height="30.067" viewBox="0 0 30.069 30.067">
  <g id="waiting-room" transform="translate(-3 -3.008)">
    <g id="Group_46" data-name="Group 46" transform="translate(0 0.008)">
      <g id="Group_45" data-name="Group 45" transform="translate(0 0)">
        <path id="Path_130" data-name="Path 130" d="M66.772,112.185a2.756,2.756,0,1,1,2.756-2.756A2.755,2.755,0,0,1,66.772,112.185Z" transform="translate(-40.593 -99.785)" fill="#05445e"/>
        <path id="Path_131" data-name="Path 131" d="M.687,247.1H7.024l2.636-11.86a.689.689,0,1,1,1.346.3L8.267,247.862v4.058a.689.689,0,0,1-1.378,0v-3.445H2.755v3.445a.689.689,0,0,1-1.378,0v-3.445H.689a.689.689,0,0,1,0-1.378Z" transform="translate(22.047 -219.541)" fill="#05445e"/>
        <path id="Path_132" data-name="Path 132" d="M284.928.008a7.578,7.578,0,1,1-7.578,7.578A7.586,7.586,0,0,1,284.928.008Zm-2.756,8.267h2.756a.689.689,0,0,0,.689-.689V3.453a.689.689,0,1,0-1.378,0V6.9h-2.067a.689.689,0,1,0,0,1.378Z" transform="translate(-274.35 2.992)" fill="#05445e"/>
        <path id="Path_133" data-name="Path 133" d="M66.082,221.608H70.9V216.1a2.756,2.756,0,1,1,5.511,0v7.578a2.069,2.069,0,0,1-2.067,2.067h-6.2v4.822a2.067,2.067,0,0,1-4.133,0v-6.889a2.069,2.069,0,0,1,2.067-2.067Z" transform="translate(-47.481 -199.563)" fill="#05445e"/>
      </g>
    </g>
  </g>
</svg>
