<svg width="34" height="41" viewBox="0 0 34 41" fill="none" xmlns="http://www.w3.org/2000/svg">
<path d="M16.7444 0.450297C22.4525 0.450297 27.1083 4.96363 27.3376 10.6155L27.3464 11.0525L27.3478 14.2047C30.9001 15.4384 33.45 18.8149 33.45 22.7881V31.3661C33.45 36.3839 29.3831 40.4501 24.366 40.4501H9.084C4.06694 40.4501 0 36.3839 0 31.3661V22.7881C0 18.8142 2.55082 15.4371 6.10424 14.204L6.1044 11.0059C6.13004 5.14993 10.8961 0.42489 16.7444 0.450297ZM24.366 16.7041H9.084C5.72368 16.7041 3 19.4273 3 22.7881V31.3661C3 34.7269 5.72368 37.4501 9.084 37.4501H24.366C27.7263 37.4501 30.45 34.7269 30.45 31.3661V22.7881C30.45 19.4273 27.7263 16.7041 24.366 16.7041ZM16.7254 23.3563C17.4848 23.3563 18.1124 23.9206 18.2117 24.6527L18.2254 24.8563V29.2983C18.2254 30.1267 17.5538 30.7983 16.7254 30.7983C15.966 30.7983 15.3384 30.234 15.2391 29.5018L15.2254 29.2983V24.8563C15.2254 24.0279 15.897 23.3563 16.7254 23.3563ZM16.7379 3.45039C12.6711 3.43266 9.33709 6.61141 9.116 10.6219L9.1044 11.0125L9.104 13.7022H24.346L24.3464 11.0525C24.3464 6.8549 20.9419 3.4504 16.7379 3.45039Z" fill="#555555"/>
</svg>
