<svg width="34" height="41" viewBox="0 0 34 41" fill="none" xmlns="http://www.w3.org/2000/svg">
<path d="M17.0197 0.45028C21.6485 0.45028 25.7154 3.34822 27.2059 7.58348C27.4814 8.36629 27.0597 9.2206 26.264 9.49164C25.4683 9.76268 24.5999 9.34781 24.3244 8.565C23.2559 5.52876 20.3389 3.45028 17.0137 3.45028C12.8797 3.43415 9.49063 6.61309 9.26589 10.6217L9.2541 11.0122L9.254 13.7022L24.7666 13.7029C29.7202 13.7029 33.763 17.5416 33.9899 22.3609L34 22.7887V31.3644C34 36.3824 29.8659 40.4502 24.7666 40.4502H9.23336C4.13408 40.4502 0 36.3824 0 31.3644V22.7887C0 18.8148 2.59277 15.4367 6.2044 14.2031L6.20477 11.0056C6.23083 5.15186 11.075 0.427166 17.0197 0.45028ZM24.7666 16.7028H9.23336C5.8183 16.7028 3.04933 19.4274 3.04933 22.7887V31.3644C3.04933 34.7257 5.8183 37.4503 9.23336 37.4503H24.7666C28.1817 37.4503 30.9507 34.7257 30.9507 31.3644V22.7887C30.9507 19.4274 28.1817 16.7028 24.7666 16.7028ZM17.0004 23.355C17.7723 23.355 18.4102 23.9193 18.5112 24.6515L18.5251 24.855V29.2989C18.5251 30.1273 17.8425 30.7988 17.0004 30.7988C16.2285 30.7988 15.5906 30.2346 15.4897 29.5024L15.4757 29.2989V24.855C15.4757 24.0266 16.1584 23.355 17.0004 23.355Z" fill="white"/>
</svg>
