<svg width="38" height="29" viewBox="0 0 38 29" fill="none" xmlns="http://www.w3.org/2000/svg">
<path d="M33.361 0H4.6468C2.08359 0 0 2.08359 0 4.6468V24.2719C0 26.8351 2.08359 28.9187 4.6468 28.9187H33.3532C35.9164 28.9187 38 26.8351 38 24.2719V4.65466C38.0078 2.09145 35.9242 0 33.361 0ZM35.8849 24.2719C35.8849 25.6635 34.7527 26.7958 33.361 26.7958H4.6468C3.25512 26.7958 2.1229 25.6635 2.1229 24.2719V4.65466C2.1229 3.26298 3.25512 2.13077 4.6468 2.13077H33.3532C34.7449 2.13077 35.8771 3.26298 35.8771 4.65466V24.2719H35.8849Z" fill="white"/>
<path d="M23.9654 14.2156L33.259 5.88126C33.6915 5.48813 33.7308 4.81981 33.3377 4.3795C32.9445 3.94706 32.2762 3.90775 31.8359 4.30088L19.0198 15.8039L16.5195 13.5709C16.5117 13.563 16.5038 13.5552 16.5038 13.5473C16.4488 13.4923 16.3937 13.4451 16.3308 13.3979L6.15662 4.29301C5.71631 3.89988 5.04799 3.9392 4.65486 4.3795C4.26173 4.81981 4.30104 5.48813 4.74135 5.88126L14.145 14.2864L4.78066 23.0532C4.35608 23.4542 4.3325 24.1225 4.73349 24.555C4.94578 24.7751 5.22883 24.893 5.51189 24.893C5.77135 24.893 6.03082 24.7987 6.23525 24.61L15.7411 15.7174L18.3201 18.0211C18.5245 18.202 18.7761 18.2885 19.0277 18.2885C19.2793 18.2885 19.5388 18.1941 19.7353 18.0133L22.385 15.6388L31.8359 24.6179C32.0403 24.8144 32.3077 24.9088 32.5671 24.9088C32.8502 24.9088 33.1254 24.7987 33.3377 24.5785C33.7386 24.154 33.7229 23.4778 33.2983 23.0768L23.9654 14.2156Z" fill="white"/>
</svg>
