<svg width="44" height="44" viewBox="0 0 44 44" fill="none" xmlns="http://www.w3.org/2000/svg">
<path d="M31.4829 19.718L25.0579 15.996L18.6773 12.3182C18.0569 11.9637 17.3479 11.8751 16.7276 12.0524C16.1073 12.2296 15.5312 12.6284 15.1767 13.2487C15.0438 13.426 14.9995 13.6475 14.9109 13.8691C14.8666 14.002 14.8666 14.1793 14.8223 14.3565C14.8223 14.4008 14.8223 14.4894 14.8223 14.5337V22.0665V29.5992C14.8223 30.3082 15.1324 30.9728 15.5755 31.4159C16.063 31.9033 16.6833 32.1692 17.3923 32.1692C17.791 32.1692 18.6329 31.8147 18.8545 31.6818L25.1465 28.0483H25.1908L25.2352 28.004L31.7488 24.2377C32.3691 23.8832 32.7679 23.3071 32.9451 22.6425C32.9894 22.5096 32.9894 22.3323 32.9894 22.1551C32.9894 20.6928 31.4829 19.718 31.4829 19.718ZM30.5967 22.3323L24.1717 26.0544C24.1274 26.0544 24.0831 26.0987 24.0831 26.0987L17.791 29.7321C17.7467 29.7764 17.5252 29.8651 17.4366 29.8651C17.3479 29.8651 17.2593 29.8207 17.1707 29.7764C17.1264 29.7321 17.0821 29.5992 17.0821 29.5106V22.0222V14.5337V14.4894C17.0821 14.4451 17.0821 14.4451 17.0821 14.4008C17.0821 14.4008 17.0821 14.3565 17.1264 14.3565C17.1264 14.3565 17.1707 14.3122 17.1707 14.2679C17.215 14.2236 17.3036 14.1793 17.3479 14.1349C17.4366 14.1349 17.5252 14.1349 17.5695 14.1349C17.6138 14.1793 17.6581 14.1793 17.7024 14.2236L23.9945 17.857C24.0388 17.9013 24.0831 17.9013 24.0831 17.9013H24.1274L30.5524 21.6234C30.641 21.6677 30.8182 21.8006 30.8182 21.9335C30.8182 22.1108 30.6853 22.288 30.5967 22.3323Z" fill="#FF5A86"/>
<path d="M37.5541 6.46929C33.3004 2.1712 27.673 0 22.0456 0C16.4182 0 10.7908 2.12689 6.49272 6.42497C2.19464 10.7674 0.0234375 16.3948 0.0234375 22.0222C0.0234375 27.6495 2.15033 33.2769 6.44841 37.575C10.7465 41.8731 16.3739 44 22.0013 44C27.6287 44 33.2561 41.8731 37.5541 37.575C41.8522 33.2769 43.9791 27.6495 43.9791 22.0222C43.9791 16.3948 41.8522 10.7674 37.5541 6.46929ZM36.0033 35.9799C32.1483 39.8348 27.097 41.7845 22.0456 41.7845C16.9942 41.7845 11.9429 39.8348 8.08789 35.9799C4.18859 32.1249 2.28326 27.0735 2.28326 22.0222C2.28326 16.9708 4.2329 11.9194 8.08789 8.06445C11.9429 4.20947 16.9942 2.25982 22.0456 2.25982C27.097 2.25982 32.1483 4.20947 36.0033 8.06445C39.8583 11.9194 41.8079 16.9708 41.8079 22.0222C41.8079 27.0735 39.9026 32.1249 36.0033 35.9799Z" fill="#FF5A86"/>
</svg>
