<svg width="15" height="14" viewBox="0 0 15 14" fill="none" xmlns="http://www.w3.org/2000/svg">
<path fill-rule="evenodd" clip-rule="evenodd" d="M8.26313 0.891625C8.11317 0.880554 7.96286 0.875009 7.8125 0.875V0C7.98447 8.38491e-05 8.15638 0.00650487 8.32787 0.01925L8.26313 0.891625ZM10.0166 1.28537C9.73614 1.17714 9.44807 1.0897 9.15475 1.02375L9.34638 0.16975C9.6815 0.245 10.0114 0.34475 10.3316 0.469L10.0166 1.28537ZM11.2154 1.90662C11.0903 1.82319 10.9621 1.74439 10.8312 1.67037L11.2626 0.909125C11.5618 1.07864 11.8481 1.26991 12.1192 1.48137L11.5811 2.17175C11.4625 2.0792 11.3405 1.99106 11.2154 1.9075V1.90662ZM12.8201 3.47288C12.647 3.22698 12.4561 2.99418 12.2487 2.77638L12.8822 2.17263C13.1185 2.422 13.3373 2.68887 13.5359 2.96887L12.8201 3.47288ZM13.4711 4.65588C13.4137 4.51715 13.3512 4.38056 13.2839 4.24638L14.0652 3.85262C14.2198 4.15982 14.3514 4.47802 14.459 4.80463L13.6277 5.0785C13.5807 4.93576 13.5285 4.79479 13.4711 4.65588ZM13.9349 6.8495C13.9278 6.5488 13.8986 6.24903 13.8474 5.95262L14.7092 5.80387C14.7679 6.14162 14.802 6.48462 14.8108 6.82762L13.9358 6.8495H13.9349ZM13.8203 8.19525C13.8491 8.0465 13.8727 7.89862 13.8911 7.749L14.76 7.85663C14.718 8.19801 14.6507 8.53581 14.5588 8.86725L13.7153 8.63363C13.7555 8.48925 13.7905 8.34313 13.8203 8.19525ZM12.9872 10.2769C13.1482 10.0231 13.29 9.75712 13.4125 9.48238L14.2123 9.83675C14.0722 10.1517 13.9104 10.4545 13.7266 10.745L12.9872 10.2769ZM12.1437 11.3313C12.2505 11.2245 12.3529 11.1142 12.45 11.0005L13.1132 11.5719C13.0009 11.7021 12.8839 11.8282 12.7624 11.9499L12.1437 11.3313Z" fill="#AAAAAA"/>
<path fill-rule="evenodd" clip-rule="evenodd" d="M7.81133 0.875C6.8041 0.875073 5.81243 1.12354 4.92416 1.5984C4.03589 2.07325 3.27843 2.75984 2.71888 3.59734C2.15932 4.43485 1.81495 5.39742 1.71625 6.3998C1.61755 7.40219 1.76757 8.41344 2.15303 9.344C2.53849 10.2746 3.14749 11.0957 3.92609 11.7347C4.70468 12.3737 5.62885 12.8108 6.61672 13.0073C7.60459 13.2038 8.62568 13.1537 9.58955 12.8613C10.5534 12.569 11.4303 12.0434 12.1426 11.3313L12.7612 11.9499C11.9472 12.7643 10.9449 13.3654 9.84311 13.6999C8.7413 14.0344 7.574 14.0919 6.44463 13.8674C5.31527 13.6429 4.2587 13.1434 3.36856 12.4129C2.47841 11.6825 1.78217 10.7438 1.34152 9.68003C0.900869 8.61622 0.729415 7.46014 0.842349 6.31424C0.955284 5.16833 1.34912 4.06796 1.98896 3.11064C2.6288 2.15332 3.4949 1.3686 4.5105 0.826003C5.52611 0.283408 6.65987 -0.000305141 7.81133 2.46276e-07V0.875Z" fill="#AAAAAA"/>
<path fill-rule="evenodd" clip-rule="evenodd" d="M7.375 2.625C7.49103 2.625 7.60231 2.67109 7.68436 2.75314C7.76641 2.83519 7.8125 2.94647 7.8125 3.0625V7.62125L10.6545 9.24525C10.7523 9.30426 10.8232 9.39919 10.8519 9.50975C10.8807 9.62031 10.865 9.73774 10.8084 9.83692C10.7517 9.93611 10.6585 10.0092 10.5486 10.0406C10.4388 10.0719 10.321 10.0591 10.2205 10.0048L7.158 8.25475C7.09104 8.2165 7.03538 8.16123 6.99665 8.09454C6.95793 8.02785 6.93752 7.95212 6.9375 7.875V3.0625C6.9375 2.94647 6.98359 2.83519 7.06564 2.75314C7.14769 2.67109 7.25897 2.625 7.375 2.625Z" fill="#AAAAAA"/>
</svg>
