<svg xmlns="http://www.w3.org/2000/svg" width="36.353" height="33.93" viewBox="0 0 36.353 33.93">
  <g id="weightlifting" transform="translate(0 -17.067)">
    <g id="Group_59" data-name="Group 59" transform="translate(0 19.21)">
      <g id="Group_58" data-name="Group 58" transform="translate(0 0)">
        <path id="Path_140" data-name="Path 140" d="M35.206,51.095h-.967V47.857a.606.606,0,0,0-.606-.606H31.977a.606.606,0,0,0-.606.606v3.237H29.254a1.684,1.684,0,0,0-3.352-.337l-.036.336H22.95a5.258,5.258,0,0,1-9.551,0H10.492l-.036-.336a1.684,1.684,0,0,0-3.352.337H4.982V47.857a.606.606,0,0,0-.606-.606H2.72a.606.606,0,0,0-.606.606v3.237H1.147a1.147,1.147,0,1,0,0,2.295h.967v3.237a.606.606,0,0,0,.606.606H4.376a.606.606,0,0,0,.606-.606V53.389H7.346l.662,6.259a1.686,1.686,0,0,0,2.944.931l2.368-2.71v6.446L7.193,66.8a2.191,2.191,0,0,0-1.341,1.7L4.63,76.516a2.191,2.191,0,0,0,4.331.661L10,70.395l5.667-2.3h5.031l5.667,2.3L27.4,77.177a2.191,2.191,0,0,0,4.331-.661L30.5,68.5a2.191,2.191,0,0,0-1.341-1.7L22.989,64.3V57.812l2.418,2.767a1.686,1.686,0,0,0,2.944-.931l.662-6.259h2.358v3.237a.606.606,0,0,0,.606.606h1.656a.606.606,0,0,0,.606-.606V53.389h.967a1.147,1.147,0,1,0,0-2.295ZM10.953,55.457l-.219-2.068H12.76Zm14.453,0L23.6,53.389h2.026Z" transform="translate(0 -47.251)" fill="#05445e"/>
      </g>
    </g>
    <g id="Group_61" data-name="Group 61" transform="translate(14.391 17.067)">
      <g id="Group_60" data-name="Group 60" transform="translate(0 0)">
        <circle id="Ellipse_45" data-name="Ellipse 45" cx="3.783" cy="3.783" r="3.783" fill="#05445e"/>
      </g>
    </g>
  </g>
</svg>
