<svg width="51" height="51" viewBox="0 0 51 51" fill="none" xmlns="http://www.w3.org/2000/svg">
<path d="M25.5659 13.1155C18.8062 13.1155 13.311 18.6108 13.3089 25.3682C13.3068 28.1265 14.1164 30.192 15.4742 32.3531L14.2375 36.8751L18.8743 35.6575C20.9525 36.89 22.9351 37.6295 25.5574 37.6316C32.3106 37.6316 37.8123 32.1343 37.8144 25.3789C37.8165 18.6065 32.3425 13.1176 25.5659 13.1155ZM32.7739 30.634C32.4679 31.4946 30.9953 32.2788 30.2876 32.385C29.6523 32.4806 28.849 32.5189 27.9671 32.2384C27.4316 32.0684 26.7453 31.841 25.8676 31.4627C22.1723 29.8669 19.7604 26.146 19.5755 25.9016C19.3906 25.6551 18.071 23.9041 18.071 22.0915C18.071 20.2789 19.023 19.3864 19.3609 19.0187C19.6987 18.6511 20.0961 18.5576 20.3426 18.5576L21.0481 18.5704C21.2734 18.581 21.5772 18.4854 21.8769 19.2036C22.1829 19.941 22.9203 21.7536 23.0116 21.9385C23.103 22.1234 23.1646 22.338 23.0414 22.5845C22.9181 22.831 22.8565 22.984 22.6737 23.1986L22.1213 23.8446C21.9364 24.0274 21.7451 24.2271 21.9597 24.5969C22.1744 24.9666 22.9139 26.1715 24.0083 27.149C25.415 28.4049 26.6029 28.7937 26.9705 28.9765C27.3381 29.1593 27.5527 29.1295 27.7695 28.8851C27.9841 28.6386 28.6896 27.8099 28.9361 27.4401C29.1826 27.0725 29.427 27.132 29.7649 27.2553C30.1028 27.3785 31.9132 28.2689 32.2809 28.4538C32.6485 28.6386 32.895 28.73 32.9864 28.883C33.082 29.036 33.082 29.7734 32.7739 30.634ZM25.5 0C11.4176 0 0 11.4176 0 25.5C0 39.5824 11.4176 51 25.5 51C39.5824 51 51 39.5824 51 25.5C51 11.4176 39.5824 0 25.5 0ZM25.5616 40.12C23.0945 40.12 20.6635 39.4995 18.5109 38.3265L10.6972 40.375L12.7882 32.7356C11.4984 30.5001 10.8184 27.9629 10.8205 25.3661C10.8226 17.238 17.4356 10.625 25.5616 10.625C29.5056 10.6271 33.2074 12.1614 35.989 14.9472C38.7728 17.7331 40.3049 21.437 40.3027 25.3768C40.3006 33.5049 33.6876 40.12 25.5616 40.12Z" fill="#49EA66"/>
</svg>
