<svg xmlns="http://www.w3.org/2000/svg" width="225" height="261.08" viewBox="0 0 225 261.08">
  <path id="Path_561" data-name="Path 561" d="M227.933-1227.377a12.9,12.9,0,0,0-7.518,6.313c-1.338,2.61-1.7,4.261-1.7,8.1-.022,2.365-.089,3.235-.268,3.168-.446-.156-.535.245-.758,3.279-.223,2.922-.045,4.684.446,4.684.134,0,.223.223.223.513,0,.781,1.495,3.725,1.9,3.725.178,0,.335-.2.335-.446,0-.8.335-.468.87.915a10.937,10.937,0,0,0,1.227,2.276c1.071,1.427,1.45,2.677,1.606,5.421.245,3.881-.491,5.51-2.967,6.625a25.817,25.817,0,0,1-5.867,1.718,1.29,1.29,0,0,0-.825.268,7.447,7.447,0,0,0-.379,2.3c-.089,1.093-.178,2.03-.2,2.052a6.613,6.613,0,0,1-.982-.223c-1.048-.268-1.026-.2-.379-2.722a3.916,3.916,0,0,0,.178-1.271,4.018,4.018,0,0,0-1.316-.29c-1.9-.245-6.358.447-11.556,1.762-4.774,1.227-11.288,2.566-14.991,3.079a51.875,51.875,0,0,1-5.577.268,34.559,34.559,0,0,1-7.5-.714c-2.164-.379-4.239-.714-4.573-.714-.357,0-1.606-.067-2.766-.134-1.985-.134-5.2.045-16.954.937-6.046.447-9.436.4-12.046-.134-2.922-.6-4.975-.781-5.979-.491-.446.134-1.227.335-1.718.469a4.021,4.021,0,0,0-1.45.736c-.312.29-.625.491-.736.446-.357-.112-2.3,1.049-2.967,1.785a17,17,0,0,0-1.517,2.186c-.446.8-.937,1.606-1.048,1.785a5.98,5.98,0,0,0-.424.848c-.6,1.405-.446,2.075.513,2.119.535.045.558.089.446,1.093l-.134,1.071h.736a1.231,1.231,0,0,0,1.339-1.249,1.99,1.99,0,0,1,.558-1.071,2.017,2.017,0,0,0,.558-1.048c0-.29.156-.424.535-.424a2.153,2.153,0,0,0,1.115-.468c.491-.379.892-.469,2.543-.469a16.322,16.322,0,0,1,2.945.245,13.257,13.257,0,0,0,5.309-.089,4.019,4.019,0,0,1,2.878.089,80.362,80.362,0,0,0,9.1,1.673c5.934.915,10.775,1.74,14.88,2.5,2.209.4,3.168.513,3.48.334.29-.156.491-.156.692.045.178.178,1.762.312,5,.4a73.716,73.716,0,0,1,7.406.558c2.231.335,4.127.4,11.6.424a100.109,100.109,0,0,1,10.418.29,19.823,19.823,0,0,1,5.488,1.762,2.674,2.674,0,0,0,1.227.446,6.463,6.463,0,0,0,.692-2.3c.223-1.2.446-2.32.513-2.476.134-.357.87-.379,1.093-.044.268.468.089,2.744-.357,4.372-.513,1.874-.558,2.543-.178,2.922a5.54,5.54,0,0,1,.312,2.231,7.109,7.109,0,0,0,1.428,4.751c.535.669.714,1.249,1.115,3.681.647,3.792,3.458,12.693,4.149,13.095.736.424.089,4.64-1.383,9.191a8.58,8.58,0,0,1-1.74,3.525,3.679,3.679,0,0,1-1.294,1.316c-.558.089-2.387,3.547-3.659,6.915a8.587,8.587,0,0,0-.848,4.194,16.634,16.634,0,0,0,.4,3.257c.468,1.807.468,1.807-.4,2.1-1.339.424-1.562.915-2.878,6.135-1.562,6.2-1.718,7.384-1.718,12.916,0,9.9,1.249,17.78,4.774,29.782a49.186,49.186,0,0,1,2.075,11.177c.2,1.874.178,1.851,2.186,1.45l.892-.179-1.048,1.138c-1.539,1.629-1.651,2.1-1.829,6.514-.089,2.141-.357,5.064-.58,6.469-1.472,8.968-1.651,13.876-.692,18.516.268,1.294.736,4.484,1.026,7.094a120.4,120.4,0,0,0,2.231,13.63c1.138,5.6,1.227,6.715.58,6.715a1.072,1.072,0,0,0-.692.335,1.288,1.288,0,0,1-.915.29.981.981,0,0,0-1,.446,1.125,1.125,0,0,1-.781.491.771.771,0,0,0-.647.558.772.772,0,0,1-.669.558c-.625,0-1.071.982-.714,1.584a2.012,2.012,0,0,1,.268.982c0,.87.58,1.874,1.919,3.279A10.709,10.709,0,0,1,212-971.011c1.16,2.5,2.32,3.614,4.35,4.06a4.015,4.015,0,0,0,4.885-2.565,40.418,40.418,0,0,0,.312-4.774,16.165,16.165,0,0,1,.379-4.439,6.577,6.577,0,0,0,.134-2.855,34.718,34.718,0,0,1,.4-6.826c.312-2.476.825-6.871,1.138-9.749.558-5.042.625-5.376,1.74-8.589l1.16-3.346-.022-4.685a66.927,66.927,0,0,0-.379-7.741c-.2-1.673-.379-3.792-.379-4.685a46.014,46.014,0,0,1,.892-7.54,15.262,15.262,0,0,0,.357-2.565c.178-2.231-.067-2.878-1.807-4.752a6.46,6.46,0,0,1-1.182-1.495,4.794,4.794,0,0,1,1.428.112,14.634,14.634,0,0,0,1.606.223c.2,0,.268-.736.268-2.967a105.842,105.842,0,0,1,1.874-20.881,79.209,79.209,0,0,0,1.405-15.415,33.526,33.526,0,0,0-.379-4.551c-.245-.781-.2-1,.4-2.343.357-.8.714-1.628.781-1.829.089-.267.357-.357.848-.335.669.022.758.134,1.472,1.785l.736,1.74-.335,1.9c-.714,4.083-.268,10.574,1.45,20.925a82.5,82.5,0,0,1,1.472,15.794l.156,6.224,1.026-.134c.558-.089,1.294-.2,1.651-.268.825-.178.758.112-.312,1.138a13.368,13.368,0,0,0-1.562,1.874c-.8,1.227-.848,2.565-.2,5.844.245,1.249.558,3.5.714,5.042a23.98,23.98,0,0,1-.134,6.38c-.535,4.774-.714,11.109-.357,12.917a24.7,24.7,0,0,0,.937,3.279c1.093,3.168,1.249,3.9,1.963,10.4.379,3.435.87,7.808,1.115,9.727a18.34,18.34,0,0,1,.178,5.51c-.223,1.807-.2,2.1.134,2.61s.4,1.115.379,4.1c-.045,4.372.2,5.644,1.294,6.737,2.119,2.119,6.09,1.249,7.674-1.7.2-.379.625-1.249.915-1.963a11.008,11.008,0,0,1,1.762-2.565c1.383-1.45,1.718-2.008,1.718-2.811a3.023,3.023,0,0,1,.268-1.138c.312-.714-.067-1.673-.669-1.673a.9.9,0,0,1-.669-.558.879.879,0,0,0-.625-.558,1.69,1.69,0,0,1-.892-.558c-.424-.468-.625-.535-.959-.357-.312.178-.513.134-.8-.2a1.288,1.288,0,0,0-.714-.446c-.535,0-.335-2.008.714-7.049a116.447,116.447,0,0,0,2.209-13.586c.312-2.588.781-5.689,1.026-6.916.959-4.529.825-8.723-.558-17.4a69.852,69.852,0,0,1-.669-7.25c-.178-4.462-.4-5.287-1.963-6.893l-.937-.959,1,.178c1.985.335,1.874.4,2.052-1.584a58.382,58.382,0,0,1,2.61-12.939c3.19-11.109,4.261-18.248,4.261-28.131,0-5.688-.134-6.759-1.807-13.207-1.2-4.685-1.472-5.2-2.789-5.621a2.83,2.83,0,0,1-.758-.335c0-.044.2-.915.446-1.941a9.981,9.981,0,0,0-.379-6.916c-1.2-3.324-3.19-7.183-3.748-7.272-.245-.022-.692-.424-1-.892-.29-.446-.692-1.026-.892-1.271a12.943,12.943,0,0,1-1.071-2.566c-1.74-5.2-2.3-8.879-1.405-9.347a1.667,1.667,0,0,0,.558-.959c.089-.4.513-1.7.937-2.856a46.444,46.444,0,0,0,2.565-9.258c.424-2.432.6-3.034,1.115-3.681a7.082,7.082,0,0,0,1.405-4.573,4.426,4.426,0,0,1,.446-2.432c.4-.625.4-.669-.089-2.342-.647-2.142-.87-4.663-.424-4.952.937-.58,1.2.022,1.874,4.082.156.982.424,1.049,1.517.4a19.254,19.254,0,0,1,5.131-1.7c1.539-.335,3.391-.4,11.2-.424,7.83-.022,9.749-.111,11.712-.446,1.918-.312,9.1-.759,12.827-.781a23.151,23.151,0,0,0,3.123-.446c1.227-.245,2.989-.557,3.9-.669.915-.134,3.636-.58,6.023-1s5.956-1,7.919-1.316,4.6-.825,5.845-1.138c2.119-.513,2.342-.513,3.212-.223a13.572,13.572,0,0,0,5.376.112,21.763,21.763,0,0,1,2.855-.424c2.142-.2,3.569.067,3.748.669a2.444,2.444,0,0,0,.379.647,3.144,3.144,0,0,1,.424,1.115c.223,1.227.379,1.361,1.316,1.093.446-.111.825-.357.825-.513,0-.178.312-.424.669-.557.892-.29.892-1.093,0-2.833a8.113,8.113,0,0,1-.669-1.606,5.155,5.155,0,0,0-1.316-2.3c-.647-.647-2.789-1.807-2.989-1.628-.067.067-.357-.134-.669-.446a3.915,3.915,0,0,0-1.517-.8c-.535-.134-1.361-.357-1.829-.491-.915-.267-3.882.022-6.737.647-1.249.29-2.409.335-5.912.223-5.287-.178-10.329-.469-15.861-.959a44.708,44.708,0,0,0-9.459,0c-.736.045-3.012.4-5.042.781a34.5,34.5,0,0,1-11.087.446,144.221,144.221,0,0,1-15.326-3.011c-5.22-1.472-10.686-2.32-12.6-1.941-1.138.223-1.16.29-.6,2.655l.312,1.361-.915.245a2.73,2.73,0,0,1-.982.156,15.191,15.191,0,0,1-.2-2.052c-.134-2.164-.29-2.521-1.16-2.521a24.1,24.1,0,0,1-6.291-1.918c-1.272-.625-1.562-.892-2.008-1.807-.491-.959-.535-1.383-.535-3.971,0-3.034.29-4.283,1.272-5.733a27.444,27.444,0,0,0,1.852-3.859c.156-.424.178-.4.312.112.268,1.026.781.759,1.539-.759a7.625,7.625,0,0,0,.714-1.74,3.641,3.641,0,0,1,.4-1.071,5.069,5.069,0,0,0,.58-2.922,14.27,14.27,0,0,1-.2-2.32c-.045-1.941-.335-2.945-.758-2.7a17.218,17.218,0,0,1-.156-3.168,17.508,17.508,0,0,0-.513-5.042,13.29,13.29,0,0,0-8.589-9.325,10.1,10.1,0,0,0-4.484-.6A11.881,11.881,0,0,0,227.933-1227.377Z" transform="translate(-119.404 1227.916)" fill="#11987e"/>
</svg>
