<svg xmlns="http://www.w3.org/2000/svg" width="302" height="350.427" viewBox="0 0 302 350.427">
  <g id="_320266_1_" data-name="320266 (1)" transform="translate(-119.404 1296.916)">
    <path id="Path_561" data-name="Path 561" d="M265.074-1227.193a17.312,17.312,0,0,0-10.091,8.474c-1.8,3.5-2.276,5.719-2.276,10.869-.03,3.174-.12,4.342-.359,4.252-.6-.21-.719.329-1.018,4.4-.3,3.922-.06,6.287.6,6.287.18,0,.3.3.3.689,0,1.048,2.006,5,2.545,5,.24,0,.449-.269.449-.6,0-1.078.449-.628,1.168,1.228a14.678,14.678,0,0,0,1.647,3.054c1.437,1.916,1.946,3.593,2.156,7.276.329,5.21-.659,7.4-3.982,8.893a34.654,34.654,0,0,1-7.875,2.305,1.732,1.732,0,0,0-1.108.359,9.995,9.995,0,0,0-.509,3.084c-.12,1.467-.24,2.724-.27,2.755a8.889,8.889,0,0,1-1.317-.3c-1.407-.359-1.377-.27-.509-3.653a5.255,5.255,0,0,0,.24-1.707,5.391,5.391,0,0,0-1.767-.39c-2.545-.329-8.534.6-15.51,2.366-6.408,1.647-15.151,3.443-20.121,4.132a69.632,69.632,0,0,1-7.486.359,46.393,46.393,0,0,1-10.061-.958c-2.9-.509-5.689-.958-6.138-.958-.479,0-2.156-.09-3.713-.18-2.665-.179-6.977.06-22.756,1.257-8.114.6-12.666.539-16.169-.179-3.922-.809-6.677-1.048-8.025-.659-.6.18-1.647.449-2.306.629a5.4,5.4,0,0,0-1.946.988c-.419.389-.838.659-.988.6-.479-.15-3.084,1.407-3.982,2.4a22.818,22.818,0,0,0-2.036,2.934c-.6,1.078-1.258,2.156-1.407,2.4a8.029,8.029,0,0,0-.569,1.138c-.808,1.886-.6,2.785.689,2.844.719.06.749.12.6,1.467l-.18,1.437h.988a1.653,1.653,0,0,0,1.8-1.677,2.671,2.671,0,0,1,.749-1.437,2.707,2.707,0,0,0,.749-1.407c0-.39.21-.569.719-.569a2.89,2.89,0,0,0,1.5-.629c.659-.509,1.2-.629,3.413-.629a21.9,21.9,0,0,1,3.952.329,17.793,17.793,0,0,0,7.126-.12c1.437-.419,1.707-.419,3.863.12a107.875,107.875,0,0,0,12.217,2.246c7.965,1.228,14.462,2.335,19.972,3.354,2.964.539,4.252.689,4.671.449.389-.21.659-.21.928.06.24.239,2.365.419,6.707.539a98.952,98.952,0,0,1,9.941.749c2.994.449,5.539.539,15.57.569,7.995,0,12.636.15,13.983.389a26.606,26.606,0,0,1,7.366,2.365,3.588,3.588,0,0,0,1.647.6,8.673,8.673,0,0,0,.928-3.084c.3-1.617.6-3.114.689-3.324.18-.479,1.168-.509,1.467-.06.359.629.12,3.683-.479,5.869-.689,2.515-.749,3.413-.24,3.923a7.437,7.437,0,0,1,.419,2.994c.06,2.934.6,4.761,1.916,6.378.719.9.958,1.677,1.5,4.941.868,5.09,4.641,17.037,5.569,17.576.988.569.12,6.228-1.856,12.337a11.516,11.516,0,0,1-2.336,4.731,4.938,4.938,0,0,1-1.737,1.767c-.749.12-3.2,4.761-4.911,9.282-1.048,2.755-1.168,3.354-1.138,5.629a22.331,22.331,0,0,0,.539,4.371c.629,2.426.629,2.426-.539,2.815-1.8.569-2.1,1.227-3.863,8.234-2.1,8.324-2.306,9.911-2.306,17.337,0,13.295,1.677,23.864,6.408,39.974a66.019,66.019,0,0,1,2.785,15c.27,2.515.24,2.485,2.934,1.946l1.2-.24-1.407,1.527c-2.066,2.186-2.216,2.815-2.455,8.743-.12,2.874-.479,6.8-.779,8.683-1.976,12.037-2.216,18.624-.928,24.852.359,1.737.988,6.019,1.377,9.522a161.6,161.6,0,0,0,2.994,18.295c1.527,7.516,1.647,9.013.779,9.013a1.438,1.438,0,0,0-.928.449,1.729,1.729,0,0,1-1.228.389,1.317,1.317,0,0,0-1.347.6,1.51,1.51,0,0,1-1.048.659,1.035,1.035,0,0,0-.868.749,1.036,1.036,0,0,1-.9.749c-.838,0-1.437,1.317-.958,2.126a2.7,2.7,0,0,1,.359,1.318c0,1.168.779,2.515,2.575,4.4a14.374,14.374,0,0,1,2.665,4.042c1.557,3.354,3.114,4.851,5.839,5.45,2.964.659,5.869-.868,6.557-3.443a54.249,54.249,0,0,0,.419-6.408c.06-3.563.24-5.479.509-5.959.269-.569.329-1.527.18-3.833a46.6,46.6,0,0,1,.539-9.162c.419-3.324,1.108-9.222,1.527-13.085.749-6.767.838-7.216,2.336-11.528l1.557-4.491-.03-6.288a89.829,89.829,0,0,0-.509-10.39c-.27-2.246-.509-5.09-.509-6.288a61.763,61.763,0,0,1,1.2-10.121,20.486,20.486,0,0,0,.479-3.443c.24-2.994-.09-3.863-2.425-6.378a8.673,8.673,0,0,1-1.587-2.006,6.436,6.436,0,0,1,1.916.15,19.65,19.65,0,0,0,2.156.3c.27,0,.359-.988.359-3.982a142.065,142.065,0,0,1,2.515-28.027,106.319,106.319,0,0,0,1.886-20.69,45,45,0,0,0-.509-6.108c-.329-1.048-.269-1.347.539-3.144.479-1.078.958-2.186,1.048-2.455.12-.359.479-.479,1.138-.449.9.03,1.018.18,1.976,2.4l.988,2.335-.449,2.545c-.958,5.48-.359,14.193,1.946,28.086a110.737,110.737,0,0,1,1.976,21.2l.21,8.354,1.377-.18c.749-.12,1.737-.269,2.216-.359,1.108-.24,1.018.15-.419,1.527a17.947,17.947,0,0,0-2.1,2.515c-1.078,1.647-1.138,3.443-.269,7.845.329,1.677.749,4.7.958,6.767a32.185,32.185,0,0,1-.18,8.563c-.719,6.408-.958,14.911-.479,17.337a33.158,33.158,0,0,0,1.258,4.4c1.467,4.252,1.677,5.24,2.635,13.953.509,4.611,1.168,10.48,1.5,13.055.479,3.982.539,5.12.24,7.4-.3,2.425-.27,2.815.18,3.5s.539,1.5.509,5.51c-.06,5.869.27,7.575,1.737,9.043,2.844,2.844,8.174,1.677,10.3-2.276.27-.509.838-1.677,1.228-2.635a14.777,14.777,0,0,1,2.365-3.443c1.857-1.946,2.306-2.695,2.306-3.773a4.058,4.058,0,0,1,.359-1.527c.419-.958-.09-2.246-.9-2.246a1.2,1.2,0,0,1-.9-.749,1.18,1.18,0,0,0-.838-.749,2.269,2.269,0,0,1-1.2-.749c-.569-.629-.838-.719-1.287-.479-.419.24-.689.18-1.078-.269a1.729,1.729,0,0,0-.958-.6c-.719,0-.449-2.695.958-9.462a156.3,156.3,0,0,0,2.964-18.235c.419-3.474,1.048-7.636,1.377-9.282,1.288-6.078,1.108-11.708-.749-23.355a93.762,93.762,0,0,1-.9-9.731c-.24-5.989-.539-7.1-2.635-9.252l-1.258-1.288,1.347.239c2.665.449,2.515.539,2.755-2.126.6-6.378,1.2-9.252,3.5-17.367,4.282-14.911,5.719-24.493,5.719-37.757,0-7.635-.18-9.073-2.425-17.726-1.617-6.288-1.976-6.977-3.743-7.545a3.8,3.8,0,0,1-1.018-.449c0-.06.27-1.228.6-2.6a13.4,13.4,0,0,0-.509-9.282c-1.617-4.461-4.282-9.641-5.03-9.761-.329-.03-.928-.569-1.347-1.2-.389-.6-.928-1.377-1.2-1.707a17.374,17.374,0,0,1-1.437-3.444c-2.336-6.977-3.084-11.917-1.886-12.546a2.238,2.238,0,0,0,.749-1.287c.12-.539.689-2.276,1.258-3.833A62.336,62.336,0,0,0,296.573-1120c.569-3.264.808-4.072,1.5-4.941a9.506,9.506,0,0,0,1.886-6.138c.03-1.8.18-2.635.6-3.264.539-.838.539-.9-.12-3.144-.868-2.875-1.168-6.258-.569-6.647,1.258-.778,1.617.03,2.515,5.479.21,1.318.569,1.407,2.036.539a25.844,25.844,0,0,1,6.887-2.276c2.066-.449,4.551-.539,15.031-.569,10.51-.03,13.085-.15,15.72-.6,2.575-.419,12.216-1.018,17.217-1.048a31.071,31.071,0,0,0,4.192-.6c1.647-.329,4.012-.748,5.24-.9,1.228-.18,4.881-.779,8.085-1.348s7.995-1.347,10.63-1.767,6.168-1.108,7.845-1.527c2.845-.689,3.144-.689,4.312-.3a18.215,18.215,0,0,0,7.216.15,29.208,29.208,0,0,1,3.833-.569c2.874-.269,4.791.09,5.03.9a3.28,3.28,0,0,0,.509.868,4.222,4.222,0,0,1,.569,1.5c.3,1.647.509,1.827,1.767,1.467.6-.15,1.108-.479,1.108-.689,0-.24.419-.569.9-.748,1.2-.39,1.2-1.467,0-3.8a10.89,10.89,0,0,1-.9-2.156,6.918,6.918,0,0,0-1.767-3.084c-.868-.868-3.743-2.426-4.012-2.186-.09.09-.479-.18-.9-.6a5.255,5.255,0,0,0-2.036-1.078c-.719-.179-1.826-.479-2.455-.659-1.228-.359-5.21.03-9.043.869-1.677.389-3.234.449-7.935.3-7.1-.24-13.863-.629-21.289-1.288a60.014,60.014,0,0,0-12.7,0c-.988.06-4.042.539-6.767,1.048a46.311,46.311,0,0,1-14.881.6,193.6,193.6,0,0,1-20.571-4.042c-7.007-1.976-14.342-3.114-16.918-2.605-1.527.3-1.557.39-.808,3.563l.419,1.826-1.228.329a3.663,3.663,0,0,1-1.318.21,20.388,20.388,0,0,1-.269-2.755c-.18-2.9-.389-3.384-1.557-3.384a32.342,32.342,0,0,1-8.444-2.575c-1.707-.839-2.1-1.2-2.695-2.425-.659-1.287-.719-1.856-.719-5.33,0-4.072.389-5.749,1.707-7.7a36.829,36.829,0,0,0,2.485-5.18c.21-.569.24-.539.419.15.359,1.377,1.048,1.018,2.066-1.018a10.232,10.232,0,0,0,.958-2.335,4.887,4.887,0,0,1,.539-1.438c.629-1.138,1.078-3.443.779-3.922a19.153,19.153,0,0,1-.269-3.114c-.06-2.6-.449-3.952-1.018-3.623a23.113,23.113,0,0,1-.21-4.252,23.5,23.5,0,0,0-.689-6.767,17.838,17.838,0,0,0-11.528-12.517c-2.156-.748-2.845-.838-6.018-.808A15.946,15.946,0,0,0,265.074-1227.193Z" transform="translate(0 -69)" fill="#11987e"/>
  </g>
</svg>
